<svg xmlns:dc="http://purl.org/dc/elements/1.1/" xmlns:cc="http://creativecommons.org/ns#" xmlns:rdf="http://www.w3.org/1999/02/22-rdf-syntax-ns#" xmlns:svg="http://www.w3.org/2000/svg" xmlns="http://www.w3.org/2000/svg" xmlns:sodipodi="http://sodipodi.sourceforge.net/DTD/sodipodi-0.dtd" xmlns:inkscape="http://www.inkscape.org/namespaces/inkscape" version="1.1" x="0px" y="0px" viewBox="0 0 100 125"><g transform="translate(0,-952.36218)"><path style="text-indent:0;text-transform:none;direction:ltr;block-progression:tb;baseline-shift:baseline;color:#1524254d;enable-background:accumulate;" d="m 50,974.53407 c -19.2826,0 -35,15.7175 -35,35.00003 0,7.706 2.5052,14.8646 6.75,20.6562 l 6.125,-5.125 C 24.7989,1020.68 23,1015.3213 23,1009.5341 c 0,-14.95903 12.041,-27.00003 27,-27.00003 14.9591,0 27,12.041 27,27.00003 0,5.7872 -1.7989,11.1459 -4.875,15.5312 l 6.125,5.125 c 4.2448,-5.7916 6.75,-12.9502 6.75,-20.6562 0,-19.28253 -15.7174,-35.00003 -35,-35.00003 z m 12.5,23.3438 -16.8438,19.15623 c -1.3806,2.3915 -0.5476,5.463 1.8438,6.8438 2.3915,1.3806 5.4631,0.5477 6.8438,-1.8438 L 62.5,997.87787 z" fill="#1524254d" fill-opacity="1" stroke="none" marker="none" visibility="visible" display="inline" overflow="visible"/></g><text x="0" y="115" fill="#1524254d" font-size="5px" font-weight="bold" font-family="'Helvetica Neue', Helvetica, Arial-Unicode, Arial, Sans-serif">Created by Aybige</text><text x="0" y="120" fill="#1524254d" font-size="5px" font-weight="bold" font-family="'Helvetica Neue', Helvetica, Arial-Unicode, Arial, Sans-serif">from the Noun Project</text></svg>