<?xml version="1.0" encoding="utf-8"?>
<!-- Generator: Adobe Illustrator 18.0.0, SVG Export Plug-In . SVG Version: 6.00 Build 0)  -->
<!DOCTYPE svg PUBLIC "-//W3C//DTD SVG 1.1//EN" "http://www.w3.org/Graphics/SVG/1.1/DTD/svg11.dtd">
<svg version="1.1" id="Ñëîé_1" xmlns="http://www.w3.org/2000/svg" xmlns:xlink="http://www.w3.org/1999/xlink" x="0px" y="0px"
	 viewBox="410.3 60.7 424.3 438.8" enable-background="new 410.3 60.7 424.3 438.8" xml:space="preserve">
<g>
	<g>
		<polygon fill="#D4ECFF" points="566,255.8 586.4,243.9 566,232.1 545.5,243.9 545.5,243.9 525.1,255.8 545.5,267.5 545.5,267.5 
			566,279.3 586.4,267.5 		"/>
		<polygon fill="#033860" points="566,226.4 566,139.7 586.4,128 586.4,214.5 		"/>
		<polygon fill="#005B97" points="566,139.7 545.5,128 545.5,214.5 566,226.4 		"/>
		<polygon fill="#D4ECFF" points="586.4,128 566,116.2 545.5,128 566,139.7 		"/>
	</g>
	<g>
		<polygon fill="#95D359" points="586.4,230.3 566,218.4 566,226.4 586.4,238.1 		"/>
	</g>
	<g>
		<polygon fill="#C13D1A" points="545.5,238.1 545.5,175.1 566,163.4 566,226.4 		"/>
		<polygon fill="#DB5126" points="545.5,175.1 525.1,163.4 525.1,226.4 545.5,238.1 		"/>
		<polygon fill="#EF602E" points="566,163.4 545.5,151.6 525.1,163.4 545.5,175.1 		"/>
		<polygon fill="#005B97" points="545.5,238.1 545.5,175.1 566,163.4 566,226.4 		"/>
		<polygon fill="#1E9CD7" points="545.5,175.1 525.1,163.4 525.1,226.4 545.5,238.1 		"/>
		<polygon fill="#D4ECFF" points="566,163.4 545.5,151.6 525.1,163.4 545.5,175.1 		"/>
	</g>
	<g>
		<polygon fill="#033860" points="566,249.9 566,214.5 586.4,202.7 586.4,238.1 		"/>
		<polygon fill="#005B97" points="566,214.5 545.5,202.7 545.5,238.1 566,249.9 		"/>
		<polygon fill="#D4ECFF" points="586.4,202.7 566,191 545.5,202.7 566,214.5 		"/>
	</g>
</g>
<g>
	
		<rect x="829.3" y="292.1" transform="matrix(-0.2482 -0.9687 0.9687 -0.2482 750.2304 1173.5026)" fill="#5793CE" width="2.4" height="7.1"/>
	
		<rect x="825.8" y="295.6" transform="matrix(-0.2483 -0.9687 0.9687 -0.2483 742.5148 1174.436)" fill="#1E9CD7" width="2.4" height="7.1"/>
	
		<rect x="822.3" y="298.8" transform="matrix(-0.2483 -0.9687 0.9687 -0.2483 734.9815 1175.177)" fill="#5793CE" width="2.4" height="7.1"/>
	
		<rect x="818.7" y="302.3" transform="matrix(-0.2482 -0.9687 0.9687 -0.2482 727.0574 1175.9629)" fill="#1E9CD7" width="2.4" height="7.1"/>
</g>
<g>
	<g>
		<path fill="#D4ECFF" d="M651.8,470.4l-154.4-89.2c-4.3-2.5-3.8-6.9,1.3-9.8l105.1-60.8c5-2.9,12.7-3.2,17.1-0.7l154.4,89.2
			c4.3,2.5,3.8,6.9-1.3,9.8l-105.1,60.8C663.8,472.6,656.3,472.9,651.8,470.4z"/>
		<g>
			<path fill="#033860" d="M781,223.7l-157.1-90.6c-2-1.1-3.9-1.4-5.3-0.7l0,0l-0.3,0.1l0,0l-5.2,2.4l5.6,2.8c0,0.1,0,0.1,0,0.3V267
				c0,6.4,4.1,14,9,16.8L780.4,372l0.8,7.1l5.6-2.7c1.8-1.1,2.9-3.5,2.9-7V240.5C789.8,234.1,785.9,226.5,781,223.7z"/>
			<path fill="#396CAA" d="M781,223.7l-157.1-90.6c-2-1.1-3.9-1.4-5.3-0.7l0,0l-0.3,0.1l0,0l-5.2,2.4l5.6,2.8c0,0.1,0,0.1,0,0.3v85
				l71.4,56.4l97-48.9C785.6,227.6,783.4,225.1,781,223.7z"/>
			<path fill="#005B97" d="M783.7,225.8l-15.4,6.4l11.6,9l9.7-4.1C788.7,232.8,786.5,228.6,783.7,225.8z"/>
			<path fill="#D4ECFF" d="M775.8,378.4l-156.9-90.6c-4.9-2.8-9-10.4-9-16.8V142.1c0-6.4,3.9-9.4,9-6.6l156.9,90.6
				c4.9,2.8,9,10.4,9,16.8v128.9C784.8,378.4,780.7,381.4,775.8,378.4z"/>
			<path fill="#FFFFFF" d="M770.6,368.9l-146.6-84.6c-4.5-2.7-8.1-9.5-8.1-15.4v-118c0-5.9,3.6-8.5,8.1-6l146.6,84.6
				c4.5,2.7,8.1,9.5,8.1,15.4v118C778.8,368.8,775.1,371.4,770.6,368.9z"/>
			<path fill="#FFFFFF" d="M770.6,368.9l-146.6-84.6c-4.5-2.7-8.1-9.5-8.1-15.4v-118c0-5.9,3.6-8.5,8.1-6l146.6,84.6
				c4.5,2.7,8.1,9.5,8.1,15.4v118C778.8,368.8,775.1,371.4,770.6,368.9z"/>
		</g>
		<path fill="#033860" d="M778.2,382.5l-21.1-2.8L620.8,301c-4.3-2.5-12-2.2-17.1,0.7l-96.6,55.7l-12.7-1.7v7.3l0,0
			c-0.1,1.7,0.8,3.2,2.9,4.5l154.4,89.2c4.3,2.5,12,2.2,17.1-0.7L774,395.2c2.8-1.7,4.2-3.8,4.2-5.7l0,0V382.5z"/>
		<path fill="#396CAA" d="M675.9,332.8l-9.7-5.6H559.8l-52.5,30.2l-12.7-1.7v7.3l0,0c-0.1,1.7,0.8,3.2,2.9,4.5l154.4,89.2
			c2.2,1.4,5.5,1.8,8.8,1.7L675.9,332.8z"/>
		<path fill="#5793CE" d="M500.2,356.4l-5.6-0.7v7.3l0,0c-0.1,1.7,0.8,3.2,2.9,4.5l2.7,1.5V356.4z"/>
		<path fill="#005B97" d="M653.3,457.4c4.2,1.5,10.1,1.3,14.4-0.8v-16.1h-14.4V457.4z"/>
		<path fill="#D4ECFF" d="M651.8,449.4l-154.4-89.2c-4.3-2.5-3.8-6.9,1.3-9.8l105.1-60.8c5-2.9,12.7-3.2,17.1-0.7l154.4,89.2
			c4.3,2.5,3.8,6.9-1.3,9.8l-105.1,60.8C663.8,451.6,656.3,451.9,651.8,449.4z"/>
		<path fill="#FFFFFF" d="M774,385.4l-105.1,60.8c-5,2.9-12.7,3.2-17.1,0.7l-154.4-89.2c-1.4-0.8-2.4-1.8-2.7-2.9
			c-0.7,2.1,0.1,4.2,2.7,5.6l154.4,89c4.3,2.5,12,2.2,17.1-0.7L774,387.9c3.4-2,4.8-4.6,3.9-6.9C777.5,382.6,776.1,384.2,774,385.4z
			"/>
		<g>
			<path fill="#033860" d="M563,330.7l-7-4.1c-0.6-0.3-0.6-0.8,0.1-1.3l8.3-4.8c0.7-0.4,1.7-0.4,2.2-0.1l7,4.1
				c0.6,0.3,0.6,0.8-0.1,1.3l-8.3,4.8C564.6,331,563.6,331.1,563,330.7z"/>
			<path fill="#033860" d="M573.8,337l-7-4.1c-0.6-0.3-0.6-0.8,0.1-1.3l8.3-4.8c0.7-0.4,1.7-0.4,2.2-0.1l7,4.1
				c0.6,0.3,0.6,0.8-0.1,1.3l-8.3,4.8C575.3,337.3,574.4,337.3,573.8,337z"/>
			<path fill="#033860" d="M584.7,343.1l-7-4.1c-0.6-0.3-0.6-0.8,0.1-1.3l8.3-4.8c0.7-0.4,1.7-0.4,2.2-0.1l7,4.1
				c0.6,0.3,0.6,0.8-0.1,1.3L587,343C586.3,343.4,585.3,343.6,584.7,343.1z"/>
			<path fill="#033860" d="M599.6,338.1l-7-4.1c-0.6-0.3-0.6-0.8,0.1-1.3l6.9-4.1c0.7-0.4,1.7-0.4,2.2-0.1l7,4.1
				c0.6,0.3,0.6,0.8-0.1,1.3l-6.9,4.1C601.1,338.4,600.1,338.4,599.6,338.1z"/>
			<path fill="#033860" d="M610.3,344.3l-7-4.1c-0.6-0.3-0.6-0.8,0.1-1.3l6.9-4.1c0.7-0.4,1.7-0.4,2.2-0.1l7,4.1
				c0.6,0.3,0.6,0.8-0.1,1.3l-6.9,4.1C611.9,344.5,610.9,344.5,610.3,344.3z"/>
			<path fill="#033860" d="M621.1,350.6l-7-4.1c-0.6-0.3-0.6-0.8,0.1-1.3l6.9-4.1c0.7-0.4,1.7-0.4,2.2-0.1l7,4.1
				c0.6,0.3,0.6,0.8-0.1,1.3l-6.9,4.1C622.7,350.8,621.7,350.8,621.1,350.6z"/>
			<path fill="#033860" d="M631.9,356.7l-7-4.1c-0.6-0.3-0.6-0.8,0.1-1.3l6.9-4.1c0.7-0.4,1.7-0.4,2.2-0.1l7,4.1
				c0.6,0.3,0.6,0.8-0.1,1.3l-6.9,4.1C633.4,357,632.5,357,631.9,356.7z"/>
			<path fill="#033860" d="M642.7,363l-7-4.1c-0.6-0.3-0.6-0.8,0.1-1.3l6.9-4.1c0.7-0.4,1.7-0.4,2.2-0.1l7,4.1
				c0.6,0.3,0.6,0.8-0.1,1.3l-6.9,4.1C644.2,363.3,643.2,363.3,642.7,363z"/>
			<path fill="#033860" d="M653.6,369.2l-7-4.1c-0.6-0.3-0.6-0.8,0.1-1.3l6.9-4.1c0.7-0.4,1.7-0.4,2.2-0.1l7,4.1
				c0.6,0.3,0.6,0.8-0.1,1.3l-6.9,4.1C655.1,369.5,654.2,369.5,653.6,369.2z"/>
			<path fill="#033860" d="M664.4,375.5l-7-4.1c-0.6-0.3-0.6-0.8,0.1-1.3l6.9-4.1c0.7-0.4,1.7-0.4,2.2-0.1l7,4.1
				c0.6,0.3,0.6,0.8-0.1,1.3l-6.9,4.1C665.9,375.8,664.9,375.8,664.4,375.5z"/>
			<path fill="#033860" d="M675.2,381.6l-7-4.1c-0.6-0.3-0.6-0.8,0.1-1.3l6.9-4.1c0.7-0.4,1.7-0.4,2.2-0.1l7,4.1
				c0.6,0.3,0.6,0.8-0.1,1.3l-6.9,4.1C676.7,381.9,675.7,381.9,675.2,381.6z"/>
			<path fill="#033860" d="M685.9,387.9l-7-4.1c-0.6-0.3-0.6-0.8,0.1-1.3l6.9-4.1c0.7-0.4,1.7-0.4,2.2-0.1l7,4.1
				c0.6,0.3,0.6,0.8-0.1,1.3l-6.9,4.1C687.5,388.2,686.5,388.2,685.9,387.9z"/>
			<path fill="#033860" d="M696.7,394.1l-7-4.1c-0.6-0.3-0.6-0.8,0.1-1.3l6.9-4.1c0.7-0.4,1.7-0.4,2.2-0.1l7,4.1
				c0.6,0.3,0.6,0.8-0.1,1.3L699,394C698.3,394.4,697.3,394.4,696.7,394.1z"/>
			<path fill="#033860" d="M615.5,335.2l-7-4.1c-0.6-0.3-0.6-0.8,0.1-1.3l6.9-4.1c0.7-0.4,1.7-0.4,2.2-0.1l7,4.1
				c0.6,0.3,0.6,0.8-0.1,1.3l-6.9,4.1C617.1,335.4,616.1,335.4,615.5,335.2z"/>
			<path fill="#033860" d="M604.6,328.7l-7-4.1c-0.6-0.3-0.6-0.8,0.1-1.3l6.9-4.1c0.7-0.4,1.7-0.4,2.2-0.1l7,4.1
				c0.6,0.3,0.6,0.8-0.1,1.3l-6.9,4.1C606.1,329,605.2,329.1,604.6,328.7z"/>
			<path fill="#033860" d="M593.5,322.4l-15-8.7c-0.6-0.3-0.6-0.8,0.1-1.3l6.9-4.1c0.7-0.4,1.7-0.4,2.2-0.1l15,8.7
				c0.6,0.3,0.6,0.8-0.1,1.3l-6.9,4.1C595.1,322.7,594.1,322.7,593.5,322.4z"/>
			<path fill="#033860" d="M601.2,314.7l-12.2-7c-0.6-0.3-0.6-0.8,0.1-1.3l6.9-4.1c0.7-0.4,1.7-0.4,2.2-0.1l12.2,7
				c0.6,0.3,0.6,0.8-0.1,1.3l-6.9,4.1C602.8,315,601.8,315,601.2,314.7z"/>
			<path fill="#033860" d="M626.3,341.3l-7-4.1c-0.6-0.3-0.6-0.8,0.1-1.3l6.9-4.1c0.7-0.4,1.7-0.4,2.2-0.1l7,4.1
				c0.6,0.3,0.6,0.8-0.1,1.3l-6.9,4.1C627.8,341.6,626.9,341.6,626.3,341.3z"/>
			<path fill="#033860" d="M637.1,347.6l-7-4.1c-0.6-0.3-0.6-0.8,0.1-1.3l6.9-4.1c0.7-0.4,1.7-0.4,2.2-0.1l7,4.1
				c0.6,0.3,0.6,0.8-0.1,1.3l-6.9,4.1C638.6,347.9,637.6,347.9,637.1,347.6z"/>
			<path fill="#033860" d="M647.9,353.8l-7-4.1c-0.6-0.3-0.6-0.8,0.1-1.3l6.9-4.1c0.7-0.4,1.7-0.4,2.2-0.1l7,4.1
				c0.6,0.3,0.6,0.8-0.1,1.3l-6.9,4.1C649.4,354.1,648.4,354.1,647.9,353.8z"/>
			<path fill="#033860" d="M658.6,360.1l-7-4.1c-0.6-0.3-0.6-0.8,0.1-1.3l6.9-4.1c0.7-0.4,1.7-0.4,2.2-0.1l7,4.1
				c0.6,0.3,0.6,0.8-0.1,1.3l-6.9,4.1C660.2,360.4,659.2,360.4,658.6,360.1z"/>
			<path fill="#033860" d="M669.4,366.2l-7-4.1c-0.6-0.3-0.6-0.8,0.1-1.3l6.9-4.1c0.7-0.4,1.7-0.4,2.2-0.1l7,4.1
				c0.6,0.3,0.6,0.8-0.1,1.3l-6.9,4.1C671,366.5,670,366.5,669.4,366.2z"/>
			<path fill="#033860" d="M680.2,372.5l-7-4.1c-0.6-0.3-0.6-0.8,0.1-1.3l6.9-4.1c0.7-0.4,1.7-0.4,2.2-0.1l7,4.1
				c0.6,0.3,0.6,0.8-0.1,1.3l-6.9,4.1C681.7,372.8,680.8,372.8,680.2,372.5z"/>
			<path fill="#033860" d="M691,378.7l-7-4.1c-0.6-0.3-0.6-0.8,0.1-1.3l6.9-4.1c0.7-0.4,1.7-0.4,2.2-0.1l7,4.1
				c0.6,0.3,0.6,0.8-0.1,1.3l-6.9,4.1C692.5,379,691.5,379,691,378.7z"/>
			<path fill="#033860" d="M701.8,385l-7-4.1c-0.6-0.3-0.6-0.8,0.1-1.3l6.9-4.1c0.7-0.4,1.7-0.4,2.2-0.1l7,4.1
				c0.6,0.3,0.6,0.8-0.1,1.3l-6.9,4.1C703.3,385.3,702.3,385.3,701.8,385z"/>
			<path fill="#033860" d="M712.5,391.2l-7-4.1c-0.6-0.3-0.6-0.8,0.1-1.3l6.9-4.1c0.7-0.4,1.7-0.4,2.2-0.1l7,4.1
				c0.6,0.3,0.6,0.8-0.1,1.3l-6.9,4.1C714.1,391.4,713.1,391.4,712.5,391.2z"/>
			<path fill="#033860" d="M731.7,402.2l-15.1-8.8c-0.6-0.3-0.6-0.8,0.1-1.3l6.9-4.1c0.7-0.4,1.7-0.4,2.2-0.1l15.3,8.8
				c0.6,0.3,0.6,0.8-0.1,1.3l-6.9,4.1C733.3,402.5,732.3,402.5,731.7,402.2z"/>
			<path fill="#033860" d="M752.9,390.2l-12.9-7.4c-0.6-0.3-0.6-0.8,0.1-1.3l6.9-4.1c0.7-0.4,1.7-0.4,2.2-0.1l12.9,7.4
				c0.6,0.3,0.6,0.8-0.1,1.3l-6.9,4.1C754.4,390.5,753.4,390.5,752.9,390.2z"/>
			<path fill="#033860" d="M645.2,340.1l-7-4.1c-0.6-0.3-0.6-0.8,0.1-1.3l6.9-4.1c0.7-0.4,1.7-0.4,2.2-0.1l7,4.1
				c0.6,0.3,0.6,0.8-0.1,1.3l-6.9,4.1C646.7,340.3,645.8,340.5,645.2,340.1z"/>
			<path fill="#033860" d="M634.1,333.8l-7-4.1c-0.6-0.3-0.6-0.8,0.1-1.3l6.9-4.1c0.7-0.4,1.7-0.4,2.2-0.1l7,4.1
				c0.6,0.3,0.6,0.8-0.1,1.3l-6.9,4.1C635.7,334,634.7,334,634.1,333.8z"/>
			<path fill="#033860" d="M623.1,327.3l-7-4.1c-0.6-0.3-0.6-0.8,0.1-1.3l6.9-4.1c0.7-0.4,1.7-0.4,2.2-0.1l7,4.1
				c0.6,0.3,0.6,0.8-0.1,1.3l-6.9,4.1C624.6,327.6,623.6,327.6,623.1,327.3z"/>
			<path fill="#033860" d="M612,320.9l-7-4.1c-0.6-0.3-0.6-0.8,0.1-1.3l6.9-4.1c0.7-0.4,1.7-0.4,2.2-0.1l7,4.1
				c0.6,0.3,0.6,0.8-0.1,1.3l-6.9,4.1C613.6,321.3,612.6,321.3,612,320.9z"/>
			<path fill="#033860" d="M656,346.4l-7-4.1c-0.6-0.3-0.6-0.8,0.1-1.3l6.9-4.1c0.7-0.4,1.7-0.4,2.2-0.1l7,4.1
				c0.6,0.3,0.6,0.8-0.1,1.3l-6.9,4.1C657.5,346.6,656.5,346.6,656,346.4z"/>
			<path fill="#033860" d="M666.8,352.5l-7-4.1c-0.6-0.3-0.6-0.8,0.1-1.3l6.9-4.1c0.7-0.4,1.7-0.4,2.2-0.1l7,4.1
				c0.6,0.3,0.6,0.8-0.1,1.3l-6.9,4.1C668.3,352.8,667.3,352.9,666.8,352.5z"/>
			<path fill="#033860" d="M677.5,358.8l-7-4.1c-0.6-0.3-0.6-0.8,0.1-1.3l6.9-4.1c0.7-0.4,1.7-0.4,2.2-0.1l7,4.1
				c0.6,0.3,0.6,0.8-0.1,1.3l-6.9,4.1C679.1,359.1,678.1,359.1,677.5,358.8z"/>
			<path fill="#033860" d="M688.3,365l-7-4.1c-0.6-0.3-0.6-0.8,0.1-1.3l6.9-4.1c0.7-0.4,1.7-0.4,2.2-0.1l7,4.1
				c0.6,0.3,0.6,0.8-0.1,1.3l-6.9,4.1C689.9,365.3,688.9,365.4,688.3,365z"/>
			<path fill="#033860" d="M699.1,371.3l-7-4.1c-0.6-0.3-0.6-0.8,0.1-1.3l6.9-4.1c0.7-0.4,1.7-0.4,2.2-0.1l7,4.1
				c0.6,0.3,0.6,0.8-0.1,1.3l-6.9,4.1C700.6,371.6,699.7,371.6,699.1,371.3z"/>
			<path fill="#033860" d="M709.9,377.4l-7-4.1c-0.6-0.3-0.6-0.8,0.1-1.3l6.9-4.1c0.7-0.4,1.7-0.4,2.2-0.1l7,4.1
				c0.6,0.3,0.6,0.8-0.1,1.3l-6.9,4.1C711.4,377.7,710.4,377.9,709.9,377.4z"/>
			<path fill="#033860" d="M720.7,383.7l-7-4.1c-0.6-0.3-0.6-0.8,0.1-1.3l6.9-4.1c0.7-0.4,1.7-0.4,2.2-0.1l7,4.1
				c0.6,0.3,0.6,0.8-0.1,1.3l-6.9,4.1C722.2,384,721.2,384,720.7,383.7z"/>
			<path fill="#033860" d="M731.4,389.9l-7-4.1c-0.6-0.3-0.6-0.8,0.1-1.3l6.9-4.1c0.7-0.4,1.7-0.4,2.2-0.1l7,4.1
				c0.6,0.3,0.6,0.8-0.1,1.3l-6.9,4.1C733,390.2,732,390.3,731.4,389.9z"/>
			<path fill="#033860" d="M742.2,396.2l-7-4.1c-0.6-0.3-0.6-0.8,0.1-1.3l6.9-4.1c0.7-0.4,1.7-0.4,2.2-0.1l7,4.1
				c0.6,0.3,0.6,0.8-0.1,1.3l-6.9,4.1C743.8,396.5,742.8,396.5,742.2,396.2z"/>
			<path fill="#033860" d="M639.5,324.7l-7-4.1c-0.6-0.3-0.6-0.8,0.1-1.3l6.9-4.1c0.7-0.4,1.7-0.4,2.2-0.1l7,4.1
				c0.6,0.3,0.6,0.8-0.1,1.3l-6.9,4.1C641,324.9,640,325.1,639.5,324.7z"/>
			<path fill="#033860" d="M628.8,318.5l-7-4.1c-0.6-0.3-0.6-0.8,0.1-1.3l6.9-4.1c0.7-0.4,1.7-0.4,2.2-0.1l7,4.1
				c0.6,0.3,0.6,0.8-0.1,1.3l-6.9,4.1C630.4,318.8,629.4,318.8,628.8,318.5z"/>
			<path fill="#033860" d="M618,312.3l-7-4.1c-0.6-0.3-0.6-0.8,0.1-1.3l6.9-4.1c0.7-0.4,1.7-0.4,2.2-0.1l7,4.1
				c0.6,0.3,0.6,0.8-0.1,1.3l-6.9,4.1C619.6,312.6,618.6,312.6,618,312.3z"/>
			<path fill="#033860" d="M607.3,306l-7-4.1c-0.6-0.3-0.6-0.8,0.1-1.3l6.9-4.1c0.7-0.4,1.7-0.4,2.2-0.1l7,4.1
				c0.6,0.3,0.6,0.8-0.1,1.3l-6.9,4.1C608.8,306.3,607.8,306.5,607.3,306z"/>
			<path fill="#033860" d="M618.3,299.7l-7-4.1c-0.6-0.3-0.6-0.8,0.1-1.3l2.2-1.3c0.7-0.4,1.7-0.4,2.2-0.1l7,4.1
				c0.6,0.3,0.6,0.8-0.1,1.3l-2.2,1.3C619.9,300,618.9,300,618.3,299.7z"/>
			<path fill="#033860" d="M632.3,307.9l-7-4.1c-0.6-0.3-0.6-0.8,0.1-1.3l2.2-1.3c0.7-0.4,1.7-0.4,2.2-0.1l7,4.1
				c0.6,0.3,0.6,0.8-0.1,1.3l-2.2,1.3C633.9,308.1,632.9,308.1,632.3,307.9z"/>
			<path fill="#033860" d="M643,314l-7-4.1c-0.6-0.3-0.6-0.8,0.1-1.3l2.2-1.3c0.7-0.4,1.7-0.4,2.2-0.1l7,4.1
				c0.6,0.3,0.6,0.8-0.1,1.3l-2.2,1.3C644.5,314.3,643.5,314.3,643,314z"/>
			<path fill="#033860" d="M653.7,320.2l-7-4.1c-0.6-0.3-0.6-0.8,0.1-1.3l2.2-1.3c0.7-0.4,1.7-0.4,2.2-0.1l7,4.1
				c0.6,0.3,0.6,0.8-0.1,1.3L656,320C655.3,320.5,654.3,320.5,653.7,320.2z"/>
			<path fill="#033860" d="M664.4,326.3l-7-4.1c-0.6-0.3-0.6-0.8,0.1-1.3l2.2-1.3c0.7-0.4,1.7-0.4,2.2-0.1l7,4.1
				c0.6,0.3,0.6,0.8-0.1,1.3l-2.2,1.3C665.9,326.6,664.9,326.6,664.4,326.3z"/>
			<path fill="#033860" d="M724.2,360.8l-7-4.1c-0.6-0.3-0.6-0.8,0.1-1.3l2.2-1.3c0.7-0.4,1.7-0.4,2.2-0.1l7,4.1
				c0.6,0.3,0.6,0.8-0.1,1.3l-2.2,1.3C725.7,361.1,724.7,361.1,724.2,360.8z"/>
			<path fill="#033860" d="M734.8,366.9l-7-4.1c-0.6-0.3-0.6-0.8,0.1-1.3l2.2-1.3c0.7-0.4,1.7-0.4,2.2-0.1l7,4.1
				c0.6,0.3,0.6,0.8-0.1,1.3l-2.2,1.3C736.3,367.2,735.4,367.4,734.8,366.9z"/>
			<path fill="#033860" d="M745.4,373.1l-7-4.1c-0.6-0.3-0.6-0.8,0.1-1.3l2.2-1.3c0.7-0.4,1.7-0.4,2.2-0.1l7,4.1
				c0.6,0.3,0.6,0.8-0.1,1.3l-2.2,1.3C747,373.4,746,373.5,745.4,373.1z"/>
			<path fill="#033860" d="M756.2,379.3l-7-4.1c-0.6-0.3-0.6-0.8,0.1-1.3l2.2-1.3c0.7-0.4,1.7-0.4,2.2-0.1l7,4.1
				c0.6,0.3,0.6,0.8-0.1,1.3l-2.2,1.3C757.8,379.5,756.8,379.7,756.2,379.3z"/>
			<path fill="#033860" d="M650.2,331l-7-4.1c-0.6-0.3-0.6-0.8,0.1-1.3l6.9-4.1c0.7-0.4,1.7-0.4,2.2-0.1l7,4.1
				c0.6,0.3,0.6,0.8-0.1,1.3l-6.9,4.1C651.8,331.2,650.8,331.2,650.2,331z"/>
			<path fill="#033860" d="M661,337.1l-7-4.1c-0.6-0.3-0.6-0.8,0.1-1.3l6.9-4.1c0.7-0.4,1.7-0.4,2.2-0.1l7,4.1
				c0.6,0.3,0.6,0.8-0.1,1.3l-6.9,4.1C662.6,337.4,661.6,337.5,661,337.1z"/>
			<path fill="#033860" d="M671.8,343.4l-7-4.1c-0.6-0.3-0.6-0.8,0.1-1.3l6.9-4.1c0.7-0.4,1.7-0.4,2.2-0.1l7,4.1
				c0.6,0.3,0.6,0.8-0.1,1.3l-6.9,4.1C673.3,343.7,672.4,343.7,671.8,343.4z"/>
			<path fill="#033860" d="M682.7,349.6l-7-4.1c-0.6-0.3-0.6-0.8,0.1-1.3l6.9-4.1c0.7-0.4,1.7-0.4,2.2-0.1l7,4.1
				c0.6,0.3,0.6,0.8-0.1,1.3l-6.9,4.1C684.3,349.9,683.3,350,682.7,349.6z"/>
			<path fill="#033860" d="M693.5,355.9l-7-4.1c-0.6-0.3-0.6-0.8,0.1-1.3l6.9-4.1c0.7-0.4,1.7-0.4,2.2-0.1l7,4.1
				c0.6,0.3,0.6,0.8-0.1,1.3l-6.9,4.1C695,356.2,694.1,356.2,693.5,355.9z"/>
			<path fill="#033860" d="M704.3,362l-7-4.1c-0.6-0.3-0.6-0.8,0.1-1.3l6.9-4.1c0.7-0.4,1.7-0.4,2.2-0.1l7,4.1
				c0.6,0.3,0.6,0.8-0.1,1.3l-6.9,4.1C705.8,362.3,704.8,362.5,704.3,362z"/>
			<path fill="#033860" d="M715.1,368.3l-7-4.1c-0.6-0.3-0.6-0.8,0.1-1.3l6.9-4.1c0.7-0.4,1.7-0.4,2.2-0.1l7,4.1
				c0.6,0.3,0.6,0.8-0.1,1.3l-6.9,4.1C716.6,368.6,715.6,368.6,715.1,368.3z"/>
			<path fill="#033860" d="M725.8,374.5l-7-4.1c-0.6-0.3-0.6-0.8,0.1-1.3l6.9-4.1c0.7-0.4,1.7-0.4,2.2-0.1l7,4.1
				c0.6,0.3,0.6,0.8-0.1,1.3l-6.9,4.1C727.4,374.8,726.4,374.9,725.8,374.5z"/>
			<path fill="#033860" d="M736.6,380.8l-7-4.1c-0.6-0.3-0.6-0.8,0.1-1.3l6.9-4.1c0.7-0.4,1.7-0.4,2.2-0.1l7,4.1
				c0.6,0.3,0.6,0.8-0.1,1.3l-6.9,4.1C738.2,381.1,737.2,381.1,736.6,380.8z"/>
			<path fill="#033860" d="M588.6,331.7l-20.6-11.9c-0.6-0.3-0.6-0.8,0.1-1.3l6.9-4.1c0.7-0.4,1.7-0.4,2.2-0.1l20.6,11.9
				c0.6,0.3,0.6,0.8-0.1,1.3l-6.9,4.1C590.2,331.9,589.2,332.1,588.6,331.7z"/>
			<path fill="#033860" d="M721.2,408.2l-20.6-11.9c-0.6-0.3-0.6-0.8,0.1-1.3l6.9-4.1c0.7-0.4,1.7-0.4,2.2-0.1l20.6,11.9
				c0.6,0.3,0.6,0.8-0.1,1.3l-6.9,4.1C722.8,408.5,721.8,408.5,721.2,408.2z"/>
			<path fill="#033860" d="M678,397l-7-4.1c-0.6-0.3-0.6-0.8,0.1-1.3l8.3-4.8c0.7-0.4,1.7-0.4,2.2-0.1l7,4.1
				c0.6,0.3,0.6,0.8-0.1,1.3l-8.3,4.8C679.5,397.3,678.5,397.5,678,397z"/>
			<path fill="#033860" d="M599.7,351.8l-11.2-6.4c-0.6-0.3-0.6-0.8,0.1-1.3l8.3-4.8c0.7-0.4,1.7-0.4,2.2-0.1l11.2,6.4
				c0.6,0.3,0.6,0.8-0.1,1.3l-8.3,4.8C601.2,352.1,600.3,352.1,599.7,351.8z"/>
			<path fill="#033860" d="M667.6,391l-11.2-6.4c-0.6-0.3-0.6-0.8,0.1-1.3l8.3-4.8c0.7-0.4,1.7-0.4,2.2-0.1l11.2,6.4
				c0.6,0.3,0.6,0.8-0.1,1.3l-8.3,4.8C669.1,391.3,668.2,391.4,667.6,391z"/>
			<path fill="#033860" d="M615.2,360.8l-11.2-6.4c-0.6-0.3-0.6-0.8,0.1-1.3l8.3-4.8c0.7-0.4,1.7-0.4,2.2-0.1l11.2,6.4
				c0.6,0.3,0.6,0.8-0.1,1.3l-8.3,4.8C616.8,361.1,615.8,361.2,615.2,360.8z"/>
			<path fill="#033860" d="M614.7,348.3l48.6,28c0.6,0.3,0.6,1,0,1.3l-8.4,4.9c-0.6,0.3-1.5,0.3-2.2,0l-48.6-28L614.7,348.3z"/>
			<path fill="#033860" d="M708.2,408.4l7.8,4.5c0.4,0.3,0.4,0.7-0.1,1l-3.5,2c-0.6,0.3-1.4,0.3-1.8,0.1l-7.8-4.5
				c-0.4-0.3-0.4-0.7,0.1-1l3.4-2C706.9,408.1,707.6,408.1,708.2,408.4z"/>
			<path fill="#033860" d="M697.3,402.1l7.8,4.5c0.4,0.3,0.4,0.7-0.1,1l-3.4,2c-0.6,0.3-1.4,0.3-1.8,0.1l-7.8-4.5
				c-0.4-0.3-0.4-0.7,0.1-1l3.4-2C696,401.8,696.9,401.8,697.3,402.1z"/>
			<path fill="#033860" d="M686.5,395.9l7.8,4.5c0.4,0.3,0.4,0.7-0.1,1l-3.4,2c-0.6,0.3-1.4,0.3-1.8,0.1l-7.8-4.5
				c-0.4-0.3-0.4-0.7,0.1-1l3.4-2C685.2,395.6,686.1,395.6,686.5,395.9z"/>
			<path fill="#033860" d="M703.3,398.7l7.8,4.5c0.4,0.3,0.4,0.7-0.1,1l-3.4,2c-0.6,0.3-1.4,0.3-1.8,0.1l-7.8-4.5
				c-0.4-0.3-0.4-0.7,0.1-1l3.4-2C702,398.4,702.7,398.4,703.3,398.7z"/>
		</g>
	</g>
	<g>
		<g>
			<path fill="#D4ECFF" d="M714.8,245.3l-6.7-3.9c-0.6-0.4-1.1-1.3-1.1-2.1l0,0c0-0.8,0.4-1.3,1.1-0.8l6.7,3.9
				c0.6,0.4,1.1,1.3,1.1,2.1l0,0C715.9,245.3,715.5,245.6,714.8,245.3z"/>
			<path fill="#D4ECFF" d="M730.7,254.4l-9.8-5.7c-0.6-0.4-1.1-1.3-1.1-2.1l0,0c0-0.8,0.4-1.3,1.1-0.8l9.8,5.7
				c0.6,0.4,1.1,1.3,1.1,2.1l0,0C731.9,254.4,731.3,254.8,730.7,254.4z"/>
			<path fill="#D4ECFF" d="M711.6,280.8l-6.7-3.9c-0.6-0.4-1.1-1.3-1.1-2.1l0,0c0-0.8,0.4-1.3,1.1-0.8l6.7,3.9
				c0.6,0.4,1.1,1.3,1.1,2.1l0,0C712.7,280.8,712.1,281.3,711.6,280.8z"/>
			<path fill="#D4ECFF" d="M725.7,289.1l-9.8-5.7c-0.6-0.4-1.1-1.3-1.1-2.1l0,0c0-0.8,0.4-1.3,1.1-0.8l9.8,5.7
				c0.6,0.4,1.1,1.3,1.1,2.1l0,0C726.8,289.1,726.3,289.4,725.7,289.1z"/>
			<path fill="#D4ECFF" d="M696.4,240.9l-4.2-2.4c-0.6-0.4-1.1-1.3-1.1-2.1l0,0c0-0.8,0.4-1.3,1.1-0.8l4.2,2.4
				c0.6,0.4,1.1,1.3,1.1,2.1l0,0C697.6,240.9,697.1,241.2,696.4,240.9z"/>
			<path fill="#D4ECFF" d="M710.7,255.4l-12.7-7.4c-0.6-0.4-1.1-1.3-1.1-2.1l0,0c0-0.8,0.4-1.3,1.1-0.8l12.7,7.4
				c0.6,0.4,1.1,1.3,1.1,2.1l0,0C711.8,255.4,711.4,255.8,710.7,255.4z"/>
			<path fill="#D4ECFF" d="M702.3,263.1l-4.2-2.4c-0.6-0.4-1.1-1.3-1.1-2.1l0,0c0-0.8,0.4-1.3,1.1-0.8l4.2,2.4
				c0.6,0.4,1.1,1.3,1.1,2.1l0,0C703.4,263.1,703,263.5,702.3,263.1z"/>
			<path fill="#D4ECFF" d="M730.6,304.5l-11.2-6.4c-0.6-0.4-1.1-1.3-1.1-2.1l0,0c0-0.8,0.4-1.3,1.1-0.8l11.2,6.4
				c0.6,0.4,1.1,1.3,1.1,2.1l0,0C731.7,304.4,731.3,304.8,730.6,304.5z"/>
			<path fill="#D4ECFF" d="M701.1,274.8l-2.7-1.5c-0.6-0.4-1.1-1.3-1.1-2.1l0,0c0-0.8,0.4-1.3,1.1-0.8l2.7,1.5
				c0.6,0.4,1.1,1.3,1.1,2.1l0,0C702.2,274.8,701.8,275.2,701.1,274.8z"/>
			<path fill="#D4ECFF" d="M701.9,287.8l-3.4-2c-0.6-0.4-1.1-1.3-1.1-2.1l0,0c0-0.8,0.4-1.3,1.1-0.8l3.4,2c0.6,0.4,1.1,1.3,1.1,2.1
				l0,0C703,287.8,702.6,288.3,701.9,287.8z"/>
			<path fill="#D4ECFF" d="M714.9,295.4l-8.8-5c-0.6-0.4-1.1-1.3-1.1-2.1l0,0c0-0.8,0.4-1.3,1.1-0.8l8.8,5c0.6,0.4,1.1,1.3,1.1,2.1
				l0,0C716,295.3,715.5,295.7,714.9,295.4z"/>
			<path fill="#D4ECFF" d="M705,296l-6.3-3.6c-0.6-0.4-1.1-1.3-1.1-2.1l0,0c0-0.8,0.4-1.3,1.1-0.8l6.3,3.6c0.6,0.4,1.1,1.3,1.1,2.1
				l0,0C706.1,295.8,705.7,296.2,705,296z"/>
			<path fill="#D4ECFF" d="M740.3,310l-4.1-2.4c-0.6-0.4-1.1-1.3-1.1-2.1l0,0c0-0.8,0.4-1.3,1.1-0.8l4.1,2.4
				c0.6,0.4,1.1,1.3,1.1,2.1l0,0C741.4,310,740.8,310.4,740.3,310z"/>
			<path fill="#D4ECFF" d="M717.9,272l-11.2-6.4c-0.6-0.4-1.1-1.3-1.1-2.1l0,0c0-0.8,0.4-1.3,1.1-0.8l11.2,6.4
				c0.6,0.4,1.1,1.3,1.1,2.1l0,0C719,272,718.6,272.4,717.9,272z"/>
			<path fill="#D4ECFF" d="M717.6,265.6l-19.5-11.2c-0.6-0.4-1.1-1.3-1.1-2.1l0,0c0-0.8,0.4-1.3,1.1-0.8l19.5,11.2
				c0.6,0.4,1.1,1.3,1.1,2.1l0,0C718.7,265.6,718.1,266,717.6,265.6z"/>
			<path fill="#D4ECFF" d="M709.5,273.4l-11.2-6.4c-0.6-0.4-1.1-1.3-1.1-2.1l0,0c0-0.8,0.4-1.3,1.1-0.8l11.2,6.4
				c0.6,0.4,1.1,1.3,1.1,2.1l0,0C710.6,273.4,710,273.8,709.5,273.4z"/>
			<path fill="#D4ECFF" d="M726.4,276.9l-4.1-2.4c-0.6-0.4-1.1-1.3-1.1-2.1l0,0c0-0.8,0.4-1.3,1.1-0.8l4.1,2.4
				c0.6,0.4,1.1,1.3,1.1,2.1l0,0C727.5,276.9,727,277.3,726.4,276.9z"/>
			<path fill="#D4ECFF" d="M760.8,271.7l-23.9-13.9c-0.6-0.4-1.1-1.3-1.1-2.1l0,0c0-0.8,0.4-1.3,1.1-0.8l23.9,13.9
				c0.6,0.4,1.1,1.3,1.1,2.1l0,0C762,271.7,761.4,272.2,760.8,271.7z"/>
			<path fill="#D4ECFF" d="M712,287.4l-13.4-7.7c-0.6-0.4-1.1-1.3-1.1-2.1l0,0c0-0.8,0.4-1.3,1.1-0.8l13.4,7.7
				c0.6,0.4,1.1,1.3,1.1,2.1l0,0C713,287.3,712.5,287.7,712,287.4z"/>
			<path fill="#D4ECFF" d="M702,237.9l-9.8-5.7c-0.6-0.4-1.1-1.3-1.1-2.1l0,0c0-0.8,0.4-1.3,1.1-0.8l9.8,5.7
				c0.6,0.4,1.1,1.3,1.1,2.1l0,0C703.2,237.9,702.7,238.3,702,237.9z"/>
			<path fill="#D4ECFF" d="M704.7,302l-11.5-6.6c-0.6-0.4-1.1-1.3-1.1-2.1l0,0c0-0.8,0.4-1.3,1.1-0.8l11.5,6.6
				c0.6,0.4,1.1,1.3,1.1,2.1l0,0C705.8,302,705.3,302.3,704.7,302z"/>
		</g>
	</g>
</g>
<g>
	<g>
		<path fill="#D4ECFF" d="M412.8,311.9l58.8-34.2c11.6-6.7,22.7-7.8,30.9-2.9c8.3,4.8,12.9,14.8,12.9,28.3v4.3
			c-0.4,0.3-0.8,0.6-1.3,0.8v-5.2c0-13-4.3-22.5-12.2-27.2c-7.8-4.5-18.3-3.5-29.7,2.9L413.5,313c-0.3,0.1-0.7,0.1-0.8-0.3
			C412.4,312.5,412.5,312.1,412.8,311.9z"/>
		<path fill="#D4ECFF" d="M596.2,271V138.6c0-26.5,18.6-58.9,41.6-72.1c11.2-6.4,21.8-7.6,29.8-2.9c8,4.6,12.5,14.3,12.5,27.3v9.2
			c-0.4,0.4-0.8,0.8-1.3,1.3V90.9c0-12.5-4.2-21.8-11.8-26.2c-7.6-4.3-17.8-3.4-28.6,2.9c-22.7,13-41,44.9-41,71V271
			c0,22-12.9,48-30.5,63.7c0-0.6,0-1.1,0-1.7C583.9,317.5,596.2,292.5,596.2,271z"/>
		<path fill="#033860" d="M680.1,104.2L680.1,104.2c2.1-2,12-10.8,26.6-13c16.4-2.5,23.2,16.7,23.2,16.7s2,9.9,1.8,15.8
			c0,5.9-0.6,27.3-0.6,27.3l-51.9-30l0,0c-0.1-0.1-0.4-0.3-0.4-0.6v-15.1C679.2,104.9,679.6,104.6,680.1,104.2z"/>
	</g>
	<g>
		<g>
			<path fill="#D4ECFF" d="M717,92l-49.3-28.4l0.1,0.7c-7.6-4.9-19-5.5-34.4,5.9c-30.5,22.4-34.2,53.5-35.7,59.4
				c-1.5,5.9-1,42.8-1,42.8s-0.1,89.2-0.1,99.5c-0.1,10.4-3.1,22-9,34.6c-5.9,12.6-20.9,27.9-20.9,27.9v18.2
				c2.4,19.6,10.8,24.2,23.1,25.3c10.1,0.8,20.7-6.3,29.3-14.1c-0.3,0.3-0.6,0.6-0.6,0.6v18.2c2.4,19.6,10.8,24.2,23.1,25.3
				c12.5,1.1,25.8-10.2,34.9-19.9c9.1-9.7,16.8-24.4,21-37.5c4.2-13.3,2.8-30.4,2.8-30.4s0.1-97.4,0.1-116.8
				c0.1-19.2,0.7-15.8,7-35.1s23-32.9,23-32.9l40-11.9L717,92z"/>
			<path fill="#033860" d="M631.2,405.9c-0.7-1-9.5-6.9-11.8-17.2c-1.3-5.7-1.1-14.6-1.1-14.6s0-4.9,0.1-9.4
				c0.1-0.1,0.1-0.1,0.3-0.3c0-0.6,0-1.1,0-1.7c-0.1,0.1-0.1,0.1-0.3,0.3c0-1,0.1-2,0.1-2.8c0.3-4.6-3.2-14.4-3.2-14.4
				s-4.8-13.2-19.2-13.7c-12.7-0.4-26.2,8.7-29.1,10.8V337c-0.1,0.1-0.4,0.3-0.6,0.4c0-0.8,0-1.7,0-2.4c0.1-0.1,0.1-0.1,0.3-0.3
				c0-0.6,0-1.1,0-1.7c-0.1,0.1-0.1,0.1-0.3,0.3c0-1,0.1-2,0.1-2.8c0.3-4.6-3.2-14.4-3.2-14.4s-4.8-13.2-19.2-13.7
				c-12.7-0.4-26.2,8.7-29.1,10.8v-5.9c-0.4,0.3-0.8,0.6-1.3,0.8v10.4c0,12.6,4.2,22.1,11.9,26.7l0,0l0.3,0.1c0.1,0,0.1,0.1,0.3,0.1
				h0.1l52.8,30.4c0,0,0,0,0-0.1L631.2,405.9z"/>
			<g>
				<path fill="#D4ECFF" d="M554.3,304.5c0,0-0.4-0.1-1.1-0.4c-0.3-0.1-0.4-0.3-0.7-0.3l-50.1-29c0,0-9.2-4.9-20.3-0.7
					c-11.2,4.1-69.4,39.1-69.4,39.1l52.1,30l0,0h0.1l51.7,29.8c0,0,29.3-18.1,49.4-29.8l1.3-0.7c8.3-4.8,14.8-8.3,16.9-8.8
					c12.5-3.4,21.1,0.7,23.4,2L554.3,304.5z"/>
				<path fill="#D4ECFF" d="M607.7,335.3l0.6,0.3C608.4,335.7,608.1,335.6,607.7,335.3z"/>
			</g>
		</g>
		<path fill="#033860" d="M732,134L732,134c2.1-2,12-10.8,26.6-13c16.4-2.5,23.2,16.7,23.2,16.7s2,9.9,1.8,15.8
			c0,5.9-0.6,27.3-0.6,27.3l-51.9-30l0,0c-0.1-0.1-0.4-0.3-0.4-0.6v-15.1C731,134.7,731.4,134.4,732,134z"/>
		<g>
			<path fill="#005B97" d="M641.3,408.2c5.7,0,12-2,18.6-5.7c22.8-13.2,41.3-45.4,41.3-71.7V198.4c0-26,18.3-58,41-71
				c10.8-6.3,21-7.3,28.6-2.9s11.8,13.7,11.8,26.2v29.7c0,0.4,0.3,0.7,0.7,0.7s0.7-0.3,0.7-0.7v-29.7c0-13-4.5-22.7-12.5-27.3
				c-8-4.6-18.6-3.6-29.8,2.9c-23,13.3-41.7,45.6-41.7,72.1v132.4c0,25.9-18.2,57.5-40.7,70.6c-10.8,6.2-20.9,7.3-28.4,2.9
				c-7.6-4.3-11.8-13.6-11.8-26v-15.5c0-13.4-4.6-23.5-12.9-28.3c-8.3-4.8-19.3-3.8-30.9,2.9l-58.8,34.2c-0.3,0.1-0.4,0.6-0.3,0.8
				c0.1,0.3,0.6,0.4,0.8,0.3l58.8-34.2c11.2-6.4,21.7-7.6,29.7-2.9c7.8,4.5,12.2,14.1,12.2,27.2v15.5c0,12.9,4.3,22.5,12.3,27.2
				C633.6,407.3,637.4,408.2,641.3,408.2z"/>
		</g>
	</g>
	<path fill="#1E9CD7" d="M645.3,230.9l-8.7-5c-0.8-0.4-1.5-1.7-1.5-2.8l0,0c0-1.1,0.6-1.5,1.4-1.1l8.7,5c0.8,0.4,1.5,1.7,1.5,2.8
		l0,0C646.9,230.9,646.2,231.3,645.3,230.9z"/>
	<path fill="#1E9CD7" d="M663.8,241.5l-12.9-7.4c-0.8-0.4-1.5-1.7-1.5-2.8l0,0c0-1.1,0.6-1.5,1.4-1.1l12.9,7.4
		c0.8,0.4,1.5,1.7,1.5,2.8l0,0C665.2,241.5,664.7,241.9,663.8,241.5z"/>
	<path fill="#1E9CD7" d="M644.4,197.7l-16.5-9.5c-0.8-0.4-1.5-1.7-1.5-2.8l0,0c0-1.1,0.6-1.5,1.4-1.1l16.5,9.5
		c0.8,0.4,1.5,1.7,1.5,2.8l0,0C645.8,197.7,645.2,198.2,644.4,197.7z"/>
	<path fill="#1E9CD7" d="M633.4,207.8l-5.5-3.1c-0.8-0.4-1.5-1.7-1.5-2.8l0,0c0-1.1,0.6-1.5,1.4-1.1l5.5,3.1
		c0.8,0.4,1.5,1.7,1.5,2.8l0,0C635,207.8,634.3,208.2,633.4,207.8z"/>
	<path fill="#1E9CD7" d="M631.8,223l-3.5-2c-0.8-0.4-1.5-1.7-1.5-2.8l0,0c0-1.1,0.6-1.5,1.4-1.1l3.5,2c0.8,0.4,1.5,1.7,1.5,2.8l0,0
		C633.3,223,632.6,223.4,631.8,223z"/>
	<path fill="#1E9CD7" d="M653.7,219.4l-14.6-8.4c-0.8-0.4-1.5-1.7-1.5-2.8l0,0c0-1.1,0.6-1.5,1.4-1.1l14.6,8.4
		c0.8,0.4,1.5,1.7,1.5,2.8l0,0C655.1,219.4,654.4,219.8,653.7,219.4z"/>
	<path fill="#1E9CD7" d="M653.2,211l-25.3-14.6c-0.8-0.4-1.5-1.7-1.5-2.8l0,0c0-1.1,0.6-1.5,1.4-1.1l25.3,14.6
		c0.8,0.4,1.5,1.7,1.5,2.8l0,0C654.6,211,654,211.4,653.2,211z"/>
	<path fill="#1E9CD7" d="M642.7,221.2l-14.6-8.4c-0.8-0.4-1.5-1.7-1.5-2.8l0,0c0-1.1,0.6-1.5,1.4-1.1l14.6,8.4
		c0.8,0.4,1.5,1.7,1.5,2.8l0,0C644.1,221.2,643.5,221.6,642.7,221.2z"/>
	<path fill="#1E9CD7" d="M664.7,225.7l-5.3-3.1c-0.8-0.4-1.5-1.7-1.5-2.8l0,0c0-1.1,0.6-1.5,1.4-1.1l5.3,3.1
		c0.8,0.4,1.5,1.7,1.5,2.8l0,0C666.1,225.7,665.5,226.2,664.7,225.7z"/>
	<g>
		<path fill="#1E9CD7" d="M649.7,184.5l-8.7-5c-0.8-0.4-1.5-1.7-1.5-2.8l0,0c0-1.1,0.6-1.5,1.4-1.1l8.7,5c0.8,0.4,1.5,1.7,1.5,2.8
			l0,0C651.1,184.5,650.5,184.9,649.7,184.5z"/>
		<path fill="#1E9CD7" d="M670.4,196.4l-12.9-7.4c-0.8-0.4-1.5-1.7-1.5-2.8l0,0c0-1.1,0.6-1.5,1.4-1.1l12.9,7.4
			c0.8,0.4,1.5,1.7,1.5,2.8l0,0C671.8,196.4,671.2,197,670.4,196.4z"/>
		<path fill="#1E9CD7" d="M645.3,230.9l-8.7-5c-0.8-0.4-1.5-1.7-1.5-2.8l0,0c0-1.1,0.6-1.5,1.4-1.1l8.7,5c0.8,0.4,1.5,1.7,1.5,2.8
			l0,0C646.9,230.9,646.2,231.3,645.3,230.9z"/>
		<path fill="#1E9CD7" d="M663.8,241.5l-12.9-7.4c-0.8-0.4-1.5-1.7-1.5-2.8l0,0c0-1.1,0.6-1.5,1.4-1.1l12.9,7.4
			c0.8,0.4,1.5,1.7,1.5,2.8l0,0C665.2,241.5,664.7,241.9,663.8,241.5z"/>
		<path fill="#1E9CD7" d="M625.9,178.9l-5.5-3.1c-0.8-0.4-1.5-1.7-1.5-2.8l0,0c0-1.1,0.6-1.5,1.4-1.1l5.5,3.1
			c0.8,0.4,1.5,1.7,1.5,2.8l0,0C627.3,178.9,626.6,179.3,625.9,178.9z"/>
		<path fill="#1E9CD7" d="M644.4,197.7l-16.5-9.5c-0.8-0.4-1.5-1.7-1.5-2.8l0,0c0-1.1,0.6-1.5,1.4-1.1l16.5,9.5
			c0.8,0.4,1.5,1.7,1.5,2.8l0,0C645.8,197.7,645.2,198.2,644.4,197.7z"/>
		<path fill="#1E9CD7" d="M633.4,207.8l-5.5-3.1c-0.8-0.4-1.5-1.7-1.5-2.8l0,0c0-1.1,0.6-1.5,1.4-1.1l5.5,3.1
			c0.8,0.4,1.5,1.7,1.5,2.8l0,0C635,207.8,634.3,208.2,633.4,207.8z"/>
		<path fill="#1E9CD7" d="M670.3,261.5l-14.6-8.4c-0.8-0.4-1.5-1.7-1.5-2.8l0,0c0-1.1,0.6-1.5,1.4-1.1l14.6,8.4
			c0.8,0.4,1.5,1.7,1.5,2.8l0,0C671.7,261.5,671.1,261.9,670.3,261.5z"/>
		<path fill="#1E9CD7" d="M631.8,223l-3.5-2c-0.8-0.4-1.5-1.7-1.5-2.8l0,0c0-1.1,0.6-1.5,1.4-1.1l3.5,2c0.8,0.4,1.5,1.7,1.5,2.8l0,0
			C633.3,223,632.6,223.4,631.8,223z"/>
		<path fill="#1E9CD7" d="M632.9,240l-4.3-2.5c-0.8-0.4-1.5-1.7-1.5-2.8l0,0c0-1.1,0.6-1.5,1.4-1.1l4.3,2.5c0.8,0.4,1.5,1.7,1.5,2.8
			l0,0C634.4,240,633.7,240.4,632.9,240z"/>
		<path fill="#1E9CD7" d="M649.8,249.6l-11.3-6.6c-0.8-0.4-1.5-1.7-1.5-2.8l0,0c0-1.1,0.6-1.5,1.4-1.1l11.3,6.6
			c0.8,0.4,1.5,1.7,1.5,2.8l0,0C651.2,249.6,650.5,250.2,649.8,249.6z"/>
		<path fill="#1E9CD7" d="M636.9,250.5l-8.3-4.8c-0.8-0.4-1.5-1.7-1.5-2.8l0,0c0-1.1,0.6-1.5,1.4-1.1l8.3,4.8
			c0.8,0.4,1.5,1.7,1.5,2.8l0,0C638.3,250.3,637.8,250.9,636.9,250.5z"/>
		<path fill="#1E9CD7" d="M653.7,219.4l-14.6-8.4c-0.8-0.4-1.5-1.7-1.5-2.8l0,0c0-1.1,0.6-1.5,1.4-1.1l14.6,8.4
			c0.8,0.4,1.5,1.7,1.5,2.8l0,0C655.1,219.4,654.4,219.8,653.7,219.4z"/>
		<path fill="#1E9CD7" d="M653.2,211l-25.3-14.6c-0.8-0.4-1.5-1.7-1.5-2.8l0,0c0-1.1,0.6-1.5,1.4-1.1l25.3,14.6
			c0.8,0.4,1.5,1.7,1.5,2.8l0,0C654.6,211,654,211.4,653.2,211z"/>
		<path fill="#1E9CD7" d="M642.7,221.2l-14.6-8.4c-0.8-0.4-1.5-1.7-1.5-2.8l0,0c0-1.1,0.6-1.5,1.4-1.1l14.6,8.4
			c0.8,0.4,1.5,1.7,1.5,2.8l0,0C644.1,221.2,643.5,221.6,642.7,221.2z"/>
		<path fill="#1E9CD7" d="M664.7,225.7l-5.3-3.1c-0.8-0.4-1.5-1.7-1.5-2.8l0,0c0-1.1,0.6-1.5,1.4-1.1l5.3,3.1
			c0.8,0.4,1.5,1.7,1.5,2.8l0,0C666.1,225.7,665.5,226.2,664.7,225.7z"/>
		<path fill="#1E9CD7" d="M645.9,239.3l-17.4-10.1c-0.8-0.4-1.5-1.7-1.5-2.8l0,0c0-1.1,0.6-1.5,1.4-1.1l17.5,10.1
			c0.8,0.4,1.5,1.7,1.5,2.8l0,0C647.3,239.3,646.7,239.8,645.9,239.3z"/>
		<path fill="#1E9CD7" d="M633.2,175l-12.9-7.4c-0.8-0.4-1.5-1.7-1.5-2.8l0,0c0-1.1,0.6-1.5,1.4-1.1l12.9,7.4
			c0.8,0.4,1.5,1.7,1.5,2.8l0,0C634.6,174.9,633.9,175.4,633.2,175z"/>
		<path fill="#1E9CD7" d="M636.5,258.3l-14.8-8.5c-0.8-0.4-1.5-1.7-1.5-2.8l0,0c0-1.1,0.6-1.5,1.4-1.1l14.8,8.5
			c0.8,0.4,1.5,1.7,1.5,2.8l0,0C637.9,258.3,637.2,258.7,636.5,258.3z"/>
	</g>
	<path fill="#1E9CD7" d="M643.4,308.8l-8.7-5c-0.8-0.4-1.5-1.7-1.5-2.8l0,0c0-1.1,0.6-1.5,1.4-1.1l8.7,5c0.8,0.4,1.5,1.7,1.5,2.8
		l0,0C644.8,308.8,644.1,309.3,643.4,308.8z"/>
	<path fill="#1E9CD7" d="M661.7,319.5l-12.9-7.4c-0.8-0.4-1.5-1.7-1.5-2.8l0,0c0-1.1,0.6-1.5,1.4-1.1l12.9,7.4
		c0.8,0.4,1.5,1.7,1.5,2.8l0,0C663.3,319.5,662.6,319.9,661.7,319.5z"/>
	<path fill="#1E9CD7" d="M642.4,275.7l-16.5-9.5c-0.8-0.4-1.5-1.7-1.5-2.8l0,0c0-1.1,0.6-1.5,1.4-1.1l16.5,9.5
		c0.8,0.4,1.5,1.7,1.5,2.8l0,0C643.8,275.7,643.1,276.2,642.4,275.7z"/>
	<path fill="#1E9CD7" d="M631.5,285.7l-5.5-3.1c-0.8-0.4-1.5-1.7-1.5-2.8l0,0c0-1.1,0.6-1.5,1.4-1.1l5.5,3.1
		c0.8,0.4,1.5,1.7,1.5,2.8l0,0C632.9,285.6,632.3,286.2,631.5,285.7z"/>
	<path fill="#1E9CD7" d="M629.8,301l-3.5-2c-0.8-0.4-1.5-1.7-1.5-2.8l0,0c0-1.1,0.6-1.5,1.4-1.1l3.5,2c0.8,0.4,1.5,1.7,1.5,2.8l0,0
		C631.2,301,630.6,301.4,629.8,301z"/>
	<path fill="#1E9CD7" d="M651.6,297.4l-14.6-8.4c-0.8-0.4-1.5-1.7-1.5-2.8l0,0c0-1.1,0.6-1.5,1.4-1.1l14.6,8.4
		c0.8,0.4,1.5,1.7,1.5,2.8l0,0C653,297.4,652.5,297.8,651.6,297.4z"/>
	<path fill="#1E9CD7" d="M651.2,289l-25.3-14.6c-0.8-0.4-1.5-1.7-1.5-2.8l0,0c0-1.1,0.6-1.5,1.4-1.1l25.3,14.6
		c0.8,0.4,1.5,1.7,1.5,2.8l0,0C652.6,289,651.9,289.4,651.2,289z"/>
	<path fill="#1E9CD7" d="M640.6,299.2l-14.6-8.4c-0.8-0.4-1.5-1.7-1.5-2.8l0,0c0-1.1,0.6-1.5,1.4-1.1l14.6,8.4
		c0.8,0.4,1.5,1.7,1.5,2.8l0,0C642.1,299,641.4,299.6,640.6,299.2z"/>
	<path fill="#1E9CD7" d="M662.7,303.7l-5.3-3.1c-0.8-0.4-1.5-1.7-1.5-2.8l0,0c0-1.1,0.6-1.5,1.4-1.1l5.3,3.1
		c0.8,0.4,1.5,1.7,1.5,2.8l0,0C664.1,303.7,663.4,304.2,662.7,303.7z"/>
</g>
<g>
	<polygon fill="#D4ECFF" points="706.8,490.3 722.9,481 739,490.3 722.9,499.5 	"/>
	<polygon fill="#D4ECFF" points="741,470.3 757.1,461 773.2,470.3 757.1,479.6 	"/>
	<polygon fill="#D4ECFF" points="775.1,450.8 791.2,441.4 807.3,450.8 791.2,460 	"/>
	<g>
		<g>
			<g>
				<polygon fill="#C13D1A" points="757.1,470.3 757.1,420.7 741,411.5 741,461 				"/>
				<polygon fill="#FF6633" points="757.1,420.7 773.2,411.5 773.2,461 757.1,470.3 				"/>
				<polygon fill="#FF6633" points="757.1,470.3 757.1,420.7 741,411.5 741,461 				"/>
			</g>
			<g>
				<polygon fill="#FF6633" points="722.9,490.3 722.9,462.4 706.8,453 706.8,481 				"/>
				<polygon fill="#FF6633" points="722.9,462.4 739,453 739,481 722.9,490.3 				"/>
				<polygon fill="#FF8360" points="706.8,453 722.9,443.8 739,453 722.9,462.4 				"/>
			</g>
			<g>
				<polygon fill="#FF6633" points="791.2,450.8 791.2,382.6 775.1,373.4 775.1,441.4 				"/>
				<polygon fill="#FF6633" points="791.2,382.6 807.3,373.4 807.3,441.4 791.2,450.8 				"/>
				<polygon fill="#FF8360" points="775.1,373.4 791.2,364 807.3,373.4 791.2,382.6 				"/>
			</g>
		</g>
		<polygon fill="#FF8360" points="741,411.5 757.1,402.1 773.2,411.5 757.1,420.7 		"/>
	</g>
</g>
<g>
	<g>
		<g>
			<path fill="#1E9CD7" d="M477.9,397.3c0,0-4.9-2.5-8,1.3c-3.1,3.8-7.4,12.6-7.6,18.5c-0.1,6,4.8,5.6,7.6,4.2
				c2.9-1.4,11.3-13.6,11.8-16c0.6-2.4-0.6-5.6-1.4-6.3C479.4,398.3,477.9,397.3,477.9,397.3z"/>
			<path fill="#D4ECFF" d="M478.9,396.1l0.3,5.2c0,1.1-0.6,2.1-1.4,2.7c-0.8,0.6-2.1,0.8-3.8,0.6c-3.8-0.6-4.1-1.7-4.3-6.9
				C469.2,392.6,478.9,396.1,478.9,396.1z"/>
			<g>
				<path fill="#1E9CD7" d="M459.7,387.4c0,0-4.9-2.5-8,1.3s-7.4,12.6-7.6,18.5c-0.1,6,4.8,5.6,7.6,4.2c2.9-1.4,11.3-13.6,11.8-16
					c0.6-2.4-0.6-5.6-1.4-6.3C461.2,388.4,459.7,387.4,459.7,387.4z"/>
				<path fill="#D4ECFF" d="M460.8,386.3l0.3,5.2c0,1.1-0.6,2.1-1.4,2.7c-0.8,0.6-2.1,0.8-3.8,0.6c-3.8-0.6-4.1-1.7-4.3-6.9
					C451.2,382.6,460.8,386.3,460.8,386.3z"/>
				<path fill="#033860" d="M505.1,291.8c-1.5-23.9-25.9,3.5-25.9,3.5l-16.7,16.4l-15.1,16.5c-2.9,3.2-4.3,7.6-3.8,11.9l6.2,46.3
					c0.3,2.2,2.2,3.9,4.6,3.9c0.7,0,1.4,0,2.2-0.1c5.5-0.8,5-6,5-6l-1.1-43.4l31.6-19C492.2,321.7,506.6,315.7,505.1,291.8z"/>
			</g>
			<path fill="#033860" d="M523.3,300.9c-1.5-23.9-25.9,3.5-25.9,3.5l-16.7,16.4l-15.1,16.5c-2.9,3.2-4.3,7.6-3.8,11.9l6.2,46.3
				c0.3,2.2,2.2,3.9,4.6,3.9c0.7,0,1.4,0,2.2-0.1c5.5-0.8,5-6,5-6l-1.1-43.4l31.6-19C510.4,331,524.8,324.8,523.3,300.9z"/>
			<path fill="#1E9CD7" d="M508.8,224c18.5,7.7,18.2,18.6,18.2,18.6s-3.6,40.2-2.4,66.9c0.6,11.2-59.5,12-50.5-17.8
				c10.5-35.3,6.6-63.8,11.6-68.2C490.5,219.4,504.1,222,508.8,224z"/>
			
				<ellipse transform="matrix(0.2494 -0.9684 0.9684 0.2494 155.4938 663.1174)" fill="#FFC2B0" cx="505.5" cy="231.3" rx="7" ry="9.5"/>
			<path fill="#FFFFFF" d="M506.9,239.4c-1.1,0-2.2-0.1-3.4-0.4c-2.7-0.7-4.9-2.1-6.4-3.9c-1.5-2-2.2-4.2-1.7-6.3
				c1.1-4.2,6.6-6.4,12-5c2.7,0.7,4.9,2.1,6.4,3.9c1.5,2,2.2,4.2,1.7,6.3l0,0C514.7,237.3,511.2,239.4,506.9,239.4z M504.1,225
				c-3.5,0-6.3,1.5-7,4.2c-0.4,1.5,0,3.2,1.3,4.8c1.3,1.5,3.2,2.8,5.6,3.4c4.6,1.3,9.1-0.6,9.9-3.8l0,0c0.4-1.5,0-3.2-1.3-4.8
				c-1.3-1.5-3.2-2.8-5.6-3.4C506,225.1,505.1,225,504.1,225z"/>
			<path fill="#FFC2B0" d="M501.4,223.2c0,0,0.1,0.7-0.1,6.6c-0.1,1.8,6.3,3.6,8,2c1.7-1.7,1-3.4,1.4-9.7
				C511.1,215.7,501.4,223.2,501.4,223.2z"/>
			<path fill="#EA9C92" d="M510.7,222c0,0-1.5,5.9-9.4,8.1l0.1-5.3L510.7,222z"/>
			<circle fill="#FFC2B0" cx="501.8" cy="210.8" r="14.3"/>
			<path fill="#EA9C92" d="M505.1,211.3c0,0-7.8,3.4-13.3,3.4s-4.2-4.5-4.2-4.5l16.1-2.4L505.1,211.3z"/>
			<path fill="#FF8360" d="M490.2,212.2c0,0,6.9-2.9,12.9-1.7c1.4,0.3,2.7,1,3.6,2.1c0.3,0.4,0.7,0.7,1.1,0.8
				c1.1,0.3,2.8-4.2,4.9-4.3c2.1-0.1,3.5,1.4,1.8,4.1c-1.7,2.7-1.1,5.7-0.3,6.2c0.8,0.4,9.1-5.9,1.8-20.3
				c-7.3-14.4-25.9-6.7-28.7-3.8c0,0-3.1,2.7-5.5,0.3C481.5,195.6,478.7,216.3,490.2,212.2z"/>
			<path fill="#FFC2B0" d="M516.5,272v10.9c0,1.3-0.6,2.4-1.4,3.2l-22.3,20.3l2.5,3.9l29.4-21.3c1.4-1,2.2-2.5,2.4-4.2l2-18.9
				L516.5,272z"/>
			<path fill="#1E9CD7" d="M525.4,237.2c0,0,6.7,10.2,9.2,37c0,0-11.6,3.8-18.1,1.7C510.1,273.7,525.4,237.2,525.4,237.2z"/>
			<path fill="#005B97" d="M515.4,250c0,0-2.7,14.1-2.8,20.9c0,1.8,1.1,3.5,2.8,4.1l0,0V250z"/>
		</g>
		<g>
			<path fill="#5793CE" d="M509.5,320.6l-4.9-0.7l-31.8-18.3c-1-0.6-2.8-0.6-3.9,0.1l-22.5,13l-2.9-0.4v2.9l0,0c0,0.4,0.1,0.7,0.7,1
				l36,20.9c1,0.6,2.8,0.6,3.9-0.1l24.5-14.1c0.7-0.4,1-0.8,1-1.4l0,0V320.6z"/>
			<path fill="#396CAA" d="M485.7,309l-2.2-1.3h-24.8l-12.2,7l-2.9-0.4v2.9l0,0c0,0.4,0.1,0.7,0.7,1l36,20.9
				c0.6,0.3,1.3,0.4,2.1,0.4L485.7,309z"/>
			<path fill="#5793CE" d="M444.7,314.4l-1.3-0.1v2.9l0,0c0,0.4,0.1,0.7,0.7,1l0.7,0.4v-4.2H444.7z"/>
			<path fill="#FFFFFF" d="M480.4,339.4c1,0.4,2.4,0.3,3.4-0.1v-5h-3.4V339.4z"/>
			<path fill="#FFFFFF" d="M480.1,336.1l-36-20.9c-1-0.6-0.8-1.7,0.3-2.2l24.5-14.1c1.1-0.7,2.9-0.7,3.9-0.1l36,20.9
				c1,0.6,0.8,1.7-0.3,2.2L484.1,336C482.9,336.7,481.1,336.7,480.1,336.1z"/>
			<path fill="#D4ECFF" d="M479.4,333.1l-30-17.4c-0.8-0.4-0.7-1.4,0.3-2l13.2-7.4c1-0.6,2.5-0.6,3.4-0.1l30,17.4
				c0.8,0.4,0.7,1.4-0.3,2l-13.2,7.4C481.8,333.5,480.3,333.5,479.4,333.1z"/>
		</g>
		<path fill="#FFC2B0" d="M470.2,298.2l-0.4,2.5c-0.3,2.1-0.3,4.3,0.1,6.4l0.4,2.2c0.3,1.3,1.3,2.2,2.5,2.4l0,0c1,0.1,1.8-0.6,2-1.5
			l0.6-5.3c0,0,1.4,1.8,2,1.8c0.7,0-0.7-5.3-2.2-8.4C473.8,295.3,470.2,298.2,470.2,298.2z"/>
		<path fill="#FFC2B0" d="M482.5,258.7l-3.9,7.7c-1,1.8-1.4,3.8-1.5,5.7l-1.7,26.2l-5.2-0.1l-2.2-29.4c-0.1-0.8,0-1.8,0.1-2.7
			l2.7-14.8L482.5,258.7z"/>
		<g>
			<path fill="#033860" d="M478.9,338.1l-3.1-3.9L444,315.8c-1-0.6-1.8-2.2-1.8-3.5v-26l-1.8-2.4l1.7-1l0,0c0.3-0.3,0.7-0.1,1.3,0.1
				l36,20.9c1,0.6,1.8,2.2,1.8,3.5v28.3c0,0.7-0.3,1.3-0.7,1.5l0,0L478.9,338.1z"/>
			<path fill="#396CAA" d="M456.9,323.3l-2.2-1.3l-12.5-21.6v-14.1l-1.8-2.4l1.7-1l0,0c0.3-0.3,0.7-0.1,1.3,0.1l36,20.9
				c0.6,0.3,1,0.8,1.4,1.5L456.9,323.3z"/>
			<path fill="#5793CE" d="M441.2,284.9l-0.8-1.1l1.7-1l0,0c0.3-0.3,0.7-0.1,1.3,0.1l0.7,0.4L441.2,284.9z"/>
			<path fill="#2D5A87" d="M479.7,304.1c0.8,0.7,1.4,2,1.5,3.1l-3.5,2.1l-1.7-2.9L479.7,304.1z"/>
			<path fill="#005B97" d="M477.6,304.8l-36-20.9c-1-0.6-1.8,0-1.8,1.4v28.3c0,1.4,0.8,2.9,1.8,3.5l36,20.9c1,0.6,1.8,0,1.8-1.4
				v-28.3C479.6,307,478.7,305.3,477.6,304.8z"/>
		</g>
		<path fill="#FFC2B0" d="M495.4,310.2l-0.6,1.3c-0.7,1.4-1.7,2.5-3.1,3.4l-3.6,2.2c-1.1,0.7-2.5,0.7-3.6,0.1c0,0-0.1,0-0.1-0.1
			c-1.1-0.7-1.3-2.4-0.3-3.4l3.8-3.8c0,0-2.1,1.5-2.7,1c-0.4-0.4,2.1-2.8,3.9-2.8c2-0.1,3.8-1.5,3.8-1.5L495.4,310.2z"/>
		<path fill="#1E9CD7" d="M485.9,223.6c0,0-13.7,15-19.2,28.6c0,0,4.6,8.4,16.1,11.8C494.3,267.3,485.9,223.6,485.9,223.6z"/>
		<path fill="#005B97" d="M480.3,263.1l2.2-21.4l-5.2,20.2C478.2,262.2,479.2,262.6,480.3,263.1z"/>
		<path fill="#FFFFFF" d="M496.2,220.6l-3.6-1c0,0,1.8,2.8,4.3,3.5c2.5,0.7,2.9-1.4,2.9-1.4L496.2,220.6z"/>
	</g>
	<circle fill="#FFFFFF" cx="513.7" cy="214.8" r="2.1"/>
</g>
<path fill="#FF8360" d="M822,222.6l-6.2-12.6l12.6-6.2l6.2,12.6L822,222.6z M819.6,211.3l3.6,7.6l7.6-3.6l-3.6-7.6L819.6,211.3z"/>
<g>
	<path fill="#D4ECFF" d="M557,461.9c-13.7-8-36-8-49.7,0s-13.7,20.7,0,28.7c13.7,8,36,8,49.7,0C570.7,482.7,570.7,469.8,557,461.9z
		 M543.6,482.9c-6.3,3.6-16.5,3.6-22.8,0c-6.3-3.6-6.3-9.5,0-13.2c6.3-3.6,16.5-3.6,22.8,0C549.9,473.3,549.9,479.2,543.6,482.9z"/>
	<g>
		<g>
			<path fill="#E84E25" d="M502.1,457.2l12.6,0.1c1-1.3,2.2-2.4,3.9-3.4c6.9-3.9,17.8-4.3,25.2-1l7.4-7l11.5,0.1
				c-0.6-0.4-1.1-0.7-1.8-1.1c-16-9.2-41.7-9.2-57.7,0c-2.9,1.7-5.3,3.6-7.1,5.6L502.1,457.2z"/>
			<polygon fill="#FF6633" points="562.7,428.1 562.7,446.3 551.3,446.2 551.3,428 			"/>
			<polygon fill="#E84E25" points="543.8,435 543.8,453.2 551.3,446.2 551.3,428 			"/>
			<path fill="#E84E25" d="M514.7,439.2v18.2l16.5-13.4l12.7,9.2V435l-11.8-5.7c0,0-16.1,4.9-16.9,5.2
				C514.4,434.7,514.7,439.2,514.7,439.2z"/>
			<polygon fill="#E84E25" points="502.1,439 502.1,457.2 514.7,457.4 514.7,439.2 			"/>
			<polygon fill="#FF6633" points="496.1,432.6 496.1,450.8 502.1,457.2 502.1,439 			"/>
			<path fill="#FF8360" d="M502.1,439l12.6,0.1c1-1.3,2.2-2.4,3.9-3.4c6.9-3.9,17.8-4.3,25.2-1l7.4-7l11.5,0.1
				c-0.6-0.4-1.1-0.7-1.8-1.1c-16-9.2-41.7-9.2-57.7,0c-2.9,1.7-5.3,3.6-7.1,5.6L502.1,439z"/>
		</g>
		<g>
			<path fill="#1E9CD7" d="M547.6,437.2v16.7l10.8-2.7c0,0-0.7-9.8-0.8-10.1C557.4,441,547.6,437.2,547.6,437.2z"/>
			<g>
				<path fill="#033860" d="M539.5,453.9v18.2l1.1,1.3l7.7-4.3c0,0-1.1-13.9-1.3-14.1C546.8,454.6,539.5,453.9,539.5,453.9z"/>
				<path fill="#005B97" d="M554.2,449.3l-6.6,6.2c5.5,4.3,4.8,10.4-2,14.3c-1.8,1.1-3.9,1.8-6.3,2.4l6.7,7.3l-6,5.6
					c7.6-0.8,14.8-3.1,20.9-6.4c13.7-7.8,15.5-20,5.7-29.1L554.2,449.3z"/>
				<polygon fill="#005B97" points="540.2,466.8 540.2,485 555,479.2 573,462.1 573,442.8 553.9,457.8 				"/>
				<path fill="#D4ECFF" d="M554.2,431.1l-6.6,6.2c5.5,4.3,4.8,10.4-2,14.3c-1.8,1.1-3.9,1.8-6.3,2.4l6.7,7.3l-6,5.6
					c7.6-0.8,14.8-3.1,20.9-6.4c13.7-7.8,15.5-20,5.7-29.1L554.2,431.1z"/>
			</g>
		</g>
		<g>
			<path fill="#005B97" d="M540.2,479.2l-6-6.3c-5.6,0.3-11.3-0.7-15.5-3.2c-4.3-2.5-6.2-6-5.5-9.2l-14.3-0.3l-5.5-5.9
				c-4.8,8.3-1.5,17.6,9.8,24.2c8.3,4.8,19.3,7.1,30.2,6.9L540.2,479.2z"/>
			<polygon fill="#005B97" points="533.6,467.2 533.6,485.4 491.3,462 491.3,443.8 497.5,446.3 			"/>
			<polygon fill="#033860" points="540.2,461 540.2,479.2 533.6,485.4 533.6,467.2 			"/>
			<path fill="#1E9CD7" d="M540.2,461l-6-6.3c-5.6,0.3-11.3-0.7-15.5-3.2c-4.3-2.5-6.2-6-5.5-9.2l-14.3-0.3l-5.5-5.9
				c-4.8,8.3-1.5,17.6,9.8,24.2c8.3,4.8,19.3,7.1,30.2,6.9L540.2,461z"/>
		</g>
	</g>
</g>
<path fill="#5793CE" d="M445.6,167.6c-5,0-9.1-4.1-9.1-9.1s4.1-9.1,9.1-9.1s9.1,4.1,9.1,9.1S450.6,167.6,445.6,167.6z M445.6,152.2
	c-3.5,0-6.3,2.8-6.3,6.3s2.8,6.3,6.3,6.3s6.3-2.8,6.3-6.3S449.1,152.2,445.6,152.2z"/>
<circle fill="#D4ECFF" cx="416.9" cy="451.8" r="6.6"/>
<circle fill="#D4ECFF" cx="753.3" cy="73.8" r="7.8"/>
<g>
	<g>
		<path fill="#FF6633" d="M718.6,155.3l-37.4-21.6c-0.7-0.4-1.4-0.4-2-0.1l0,0l-3.6,2.1c0,0,1.5,0.6,2.5,1v27.2
			c0,2.2,1.4,4.8,3.1,5.7l35.8,20.7v3.2l3.6-2.1l0,0c0.6-0.4,1-1.3,1-2.4v-28C721.5,158.8,720.2,156.2,718.6,155.3z"/>
		<path fill="#FF8360" d="M714.9,193.2l-37.5-21.6c-1.7-1-3.1-3.5-3.1-5.7V138c0-2.2,1.4-3.2,3.1-2.2l37.4,21.6
			c1.7,1,3.1,3.5,3.1,5.7V191C717.9,193.2,716.5,194.2,714.9,193.2z"/>
	</g>
	<g>
		<path fill="#FFFFFF" d="M690,162.1c0,1.7-1.1,2.2-2.5,1.4c-1.4-0.8-2.5-2.8-2.5-4.3c0-1.7,1.1-2.2,2.5-1.4
			C688.9,158.5,690,160.4,690,162.1z"/>
		<path fill="#FFFFFF" d="M697.7,166.5c0,1.7-1.1,2.2-2.5,1.4c-1.4-0.8-2.5-2.8-2.5-4.3s1.1-2.2,2.5-1.4
			C696.6,163,697.7,164.9,697.7,166.5z"/>
		<path fill="#FFFFFF" d="M705.3,170.9c0,1.7-1.1,2.2-2.5,1.4c-1.4-0.8-2.5-2.8-2.5-4.3c0-1.7,1.1-2.2,2.5-1.4
			C704.1,167.3,705.3,169.3,705.3,170.9z"/>
	</g>
</g>
<g>
	<g>
		<path fill="#1E9CD7" d="M536.6,112.7l-36.7-21.1c-0.7-0.4-1.4-0.4-2-0.1l0,0l-3.5,2.1c0,0,1.5,0.6,2.5,1v26.7
			c0,2.2,1.3,4.8,2.9,5.6l35.1,20.3v3.1l3.6-2.1l0,0c0.6-0.4,1-1.1,1-2.4v-27.3C539.5,116.2,538.1,113.7,536.6,112.7z"/>
		<path fill="#D4ECFF" d="M532.9,150.1l-36.7-21.3c-1.7-1-2.9-3.5-2.9-5.6V95.9c0-2.2,1.3-3.2,2.9-2.2l36.7,21.1
			c1.7,1,2.9,3.5,2.9,5.6v27.3C535.9,149.9,534.6,150.9,532.9,150.1z"/>
	</g>
	<g>
		<path fill="#FFFFFF" d="M508.6,119.4c0,1.5-1.1,2.2-2.5,1.4c-1.4-0.8-2.5-2.7-2.5-4.3c0-1.5,1.1-2.2,2.5-1.4
			C507.4,115.9,508.6,117.9,508.6,119.4z"/>
		<path fill="#FFFFFF" d="M516,123.8c0,1.5-1.1,2.2-2.5,1.4c-1.4-0.8-2.5-2.7-2.5-4.3c0-1.5,1.1-2.2,2.5-1.4
			C514.9,120.3,516,122.2,516,123.8z"/>
		<path fill="#FFFFFF" d="M523.5,128.1c0,1.5-1.1,2.2-2.5,1.4c-1.4-0.8-2.5-2.7-2.5-4.3c0-1.5,1.1-2.2,2.5-1.4
			S523.5,126.6,523.5,128.1z"/>
	</g>
</g>
</svg>
