<?xml version="1.0" encoding="utf-8"?>
<!-- Generator: Adobe Illustrator 18.0.0, SVG Export Plug-In . SVG Version: 6.00 Build 0)  -->
<!DOCTYPE svg PUBLIC "-//W3C//DTD SVG 1.1//EN" "http://www.w3.org/Graphics/SVG/1.1/DTD/svg11.dtd">
<svg version="1.1" id="Camada_1" xmlns="http://www.w3.org/2000/svg" xmlns:xlink="http://www.w3.org/1999/xlink" x="0px" y="0px"
	 viewBox="0 0 960 560" enable-background="new 0 0 960 560" xml:space="preserve">
<g id="Loop">
	<linearGradient id="SVGID_1_" gradientUnits="userSpaceOnUse" x1="163.9197" y1="392.3556" x2="451.9485" y2="131.3295">
		<stop  offset="0" style="stop-color:#CCE0F4"/>
		<stop  offset="6.405089e-002" style="stop-color:#C3DCF2"/>
		<stop  offset="0.1706" style="stop-color:#A9D2EE"/>
		<stop  offset="0.3066" style="stop-color:#80C2E7"/>
		<stop  offset="0.4649" style="stop-color:#47ACDE"/>
		<stop  offset="0.5674" style="stop-color:#1E9CD7"/>
		<stop  offset="0.8652" style="stop-color:#0075BE"/>
		<stop  offset="0.9944" style="stop-color:#005B97"/>
	</linearGradient>
	<path fill="url(#SVGID_1_)" d="M282.2,334.6c-1.4,0-2.8-0.1-4.2-0.4l-0.8-0.2c-4.6-0.9-8.4-3.3-11.3-7.1c-3.2-3.9-4.7-8.2-4.7-13
		c0-1.3,0.1-2.5,0.4-3.6V199.7c0-5.5,2.3-10.6,6.1-14.4c3.7-3.7,9-5.8,14.6-5.8c5.6,0,11,2.1,14.7,5.8c3.7,3.7,6.1,8.9,6.1,14.4
		v93.5l41.1,0.2c5.6,0,10.8,2.2,14.6,6.1c3.7,3.7,6,9.1,6,14.7c0,6-2,10.8-6,14.6c-3.7,3.6-9,5.7-14.6,5.7H282.2z"/>
	<linearGradient id="SVGID_2_" gradientUnits="userSpaceOnUse" x1="248.1909" y1="485.3445" x2="536.2197" y2="224.3184">
		<stop  offset="0" style="stop-color:#CCE0F4"/>
		<stop  offset="6.405089e-002" style="stop-color:#C3DCF2"/>
		<stop  offset="0.1706" style="stop-color:#A9D2EE"/>
		<stop  offset="0.3066" style="stop-color:#80C2E7"/>
		<stop  offset="0.4649" style="stop-color:#47ACDE"/>
		<stop  offset="0.5674" style="stop-color:#1E9CD7"/>
		<stop  offset="0.8652" style="stop-color:#0075BE"/>
		<stop  offset="0.9944" style="stop-color:#005B97"/>
	</linearGradient>
	<path fill="url(#SVGID_2_)" d="M477.4,279.3c-2.8-10.7-7.9-19.2-15.9-26.4c10.4-8.5,22-12.5,34.9-11.4
		c18.9,1.6,32.7,11.4,40.8,28.4c8,16.8,6.5,33.4-4,48.8c-14.2,20.8-43.9,26.1-66.9,12.5c-7.2-4.3-12.2-9.9-13.9-18.2
		c-1.8-8.8-3.7-17.5-5.7-26.2c-1.9-8.3-8.4-13.7-16.5-14.2c-7.8-0.4-15.3,4.5-17.9,11.9c-2.6,7.2-0.3,15.2,5.7,20
		c5.8,4.7,13.5,5.2,20,1.3c2.3-1.4,4.6-2.8,7.3-4.5c2.8,9.4,3.7,19.5,11.5,26.5c-14.9,11.1-36.4,11.7-52.2,1.7
		c-16.2-10.2-24.2-29-20.6-48.2c3.5-18.1,18.4-32.9,36.5-36.2c26.3-4.8,48.5,11.2,53.7,38.6c0.7,3.8,1.3,7.7,2.2,11.5
		c2.4,9.9,9.1,15.2,17.9,14.5c9.3-0.8,17-8.4,17.9-17.7c0.8-9.1-4.9-17.3-13.8-19.6C490,270.2,483.3,272.6,477.4,279.3z"/>
	<linearGradient id="SVGID_3_" gradientUnits="userSpaceOnUse" x1="312.4305" y1="556.2295" x2="600.4593" y2="295.2034">
		<stop  offset="0" style="stop-color:#CCE0F4"/>
		<stop  offset="6.405089e-002" style="stop-color:#C3DCF2"/>
		<stop  offset="0.1706" style="stop-color:#A9D2EE"/>
		<stop  offset="0.3066" style="stop-color:#80C2E7"/>
		<stop  offset="0.4649" style="stop-color:#47ACDE"/>
		<stop  offset="0.5674" style="stop-color:#1E9CD7"/>
		<stop  offset="0.8652" style="stop-color:#0075BE"/>
		<stop  offset="0.9944" style="stop-color:#005B97"/>
	</linearGradient>
	<path fill="url(#SVGID_3_)" d="M640.4,255.5c-8.6-8.8-20.5-13.9-33.2-13.9c-12.4,0-23.7,4.9-32.3,13.4c-8.8,8.5-14,20-14,32.3V350
		c0,4.9,1.6,9.5,4.8,12.6c3.2,3.2,7.5,5.2,12.1,5.2c4.9,0,9.9-2,12.9-5.2c3-3.1,5.2-7.6,5.2-12.6v-16.2c4,1.2,7.6,1.7,12.1,1.7
		c12.6,0,24.2-5.2,32.7-13.8c8.6-8.6,13.6-20.4,13.6-33.1C654.4,276.1,649,264.3,640.4,255.5z M607.8,308.5
		c-10.2,0-18.5-8.3-18.5-18.5s8.3-18.5,18.5-18.5c10.2,0,18.5,8.3,18.5,18.5S618,308.5,607.8,308.5z"/>
</g>
<g>
	<linearGradient id="SVGID_4_" gradientUnits="userSpaceOnUse" x1="152.5633" y1="379.8243" x2="440.5921" y2="118.7982">
		<stop  offset="0" style="stop-color:#CCE0F4"/>
		<stop  offset="6.405089e-002" style="stop-color:#C3DCF2"/>
		<stop  offset="0.1706" style="stop-color:#A9D2EE"/>
		<stop  offset="0.3066" style="stop-color:#80C2E7"/>
		<stop  offset="0.4649" style="stop-color:#47ACDE"/>
		<stop  offset="0.5674" style="stop-color:#1E9CD7"/>
		<stop  offset="0.8652" style="stop-color:#0075BE"/>
		<stop  offset="0.9944" style="stop-color:#005B97"/>
	</linearGradient>
	<path fill="url(#SVGID_4_)" d="M358.5,181.9v9.2h18.9v6.7h-18.9v20.8h-8.8v-38.6c0-6,4-9.4,10.3-9.4c6.8,0,14.3,0,20.4,0.6
		l-0.5,6.6h-17.4C359.6,177.8,358.5,178.9,358.5,181.9z"/>
	<linearGradient id="SVGID_5_" gradientUnits="userSpaceOnUse" x1="176.7717" y1="406.537" x2="464.8005" y2="145.5109">
		<stop  offset="0" style="stop-color:#CCE0F4"/>
		<stop  offset="6.405089e-002" style="stop-color:#C3DCF2"/>
		<stop  offset="0.1706" style="stop-color:#A9D2EE"/>
		<stop  offset="0.3066" style="stop-color:#80C2E7"/>
		<stop  offset="0.4649" style="stop-color:#47ACDE"/>
		<stop  offset="0.5674" style="stop-color:#1E9CD7"/>
		<stop  offset="0.8652" style="stop-color:#0075BE"/>
		<stop  offset="0.9944" style="stop-color:#005B97"/>
	</linearGradient>
	<path fill="url(#SVGID_5_)" d="M414.9,211.8l0.8,5.4c-3.6,1.7-9.7,2.3-14,2.3c-12.4,0-17-5-17-17.9c0-13.5,4.9-17.9,16.5-17.9
		c11,0,15.5,4.1,15.5,11.8c0,6.1-2.8,9.7-9.1,9.7h-13.9c0.7,6.2,3.3,7.4,9.1,7.4C405.9,212.6,410.8,212.3,414.9,211.8z M393.3,199.3
		h11.7c2.7,0,3.1-2.2,3.1-4c0-3.6-1.5-5-6.7-5C395.5,190.3,393.6,192.1,393.3,199.3z"/>
	<linearGradient id="SVGID_6_" gradientUnits="userSpaceOnUse" x1="193.9361" y1="425.4771" x2="481.9649" y2="164.451">
		<stop  offset="0" style="stop-color:#CCE0F4"/>
		<stop  offset="6.405089e-002" style="stop-color:#C3DCF2"/>
		<stop  offset="0.1706" style="stop-color:#A9D2EE"/>
		<stop  offset="0.3066" style="stop-color:#80C2E7"/>
		<stop  offset="0.4649" style="stop-color:#47ACDE"/>
		<stop  offset="0.5674" style="stop-color:#1E9CD7"/>
		<stop  offset="0.8652" style="stop-color:#0075BE"/>
		<stop  offset="0.9944" style="stop-color:#005B97"/>
	</linearGradient>
	<path fill="url(#SVGID_6_)" d="M452.9,211.8l0.8,5.4c-3.6,1.7-9.7,2.3-14,2.3c-12.4,0-17-5-17-17.9c0-13.5,4.9-17.9,16.5-17.9
		c11,0,15.5,4.1,15.5,11.8c0,6.1-2.8,9.7-9.1,9.7h-13.9c0.7,6.2,3.3,7.4,9.1,7.4C444,212.6,448.8,212.3,452.9,211.8z M431.4,199.3
		h11.7c2.7,0,3.1-2.2,3.1-4c0-3.6-1.5-5-6.7-5C433.5,190.3,431.7,192.1,431.4,199.3z"/>
	<linearGradient id="SVGID_7_" gradientUnits="userSpaceOnUse" x1="211.63" y1="445.0014" x2="499.6588" y2="183.9753">
		<stop  offset="0" style="stop-color:#CCE0F4"/>
		<stop  offset="6.405089e-002" style="stop-color:#C3DCF2"/>
		<stop  offset="0.1706" style="stop-color:#A9D2EE"/>
		<stop  offset="0.3066" style="stop-color:#80C2E7"/>
		<stop  offset="0.4649" style="stop-color:#47ACDE"/>
		<stop  offset="0.5674" style="stop-color:#1E9CD7"/>
		<stop  offset="0.8652" style="stop-color:#0075BE"/>
		<stop  offset="0.9944" style="stop-color:#005B97"/>
	</linearGradient>
	<path fill="url(#SVGID_7_)" d="M493.3,170.1v48.6h-6.7l-0.7-4.7c-3.1,2.8-7.6,5.5-13.2,5.5c-8.6,0-11.9-6.5-11.9-18.1
		c0-13.5,4.4-17.8,13.1-17.8c4,0,8,0.9,11.3,3.1c-0.3-2.2-0.3-4.4-0.3-6.9v-9.8H493.3z M475.8,212.4c3.4,0,5.2-1,9-3.5v-16.9
		c-3.1-0.7-5.4-1.4-8.5-1.4c-5,0-6.9,1.7-6.9,10.8C469.5,210.3,471.3,212.4,475.8,212.4z"/>
	<linearGradient id="SVGID_8_" gradientUnits="userSpaceOnUse" x1="225.1738" y1="459.9462" x2="513.2026" y2="198.9201">
		<stop  offset="0" style="stop-color:#CCE0F4"/>
		<stop  offset="6.405089e-002" style="stop-color:#C3DCF2"/>
		<stop  offset="0.1706" style="stop-color:#A9D2EE"/>
		<stop  offset="0.3066" style="stop-color:#80C2E7"/>
		<stop  offset="0.4649" style="stop-color:#47ACDE"/>
		<stop  offset="0.5674" style="stop-color:#1E9CD7"/>
		<stop  offset="0.8652" style="stop-color:#0075BE"/>
		<stop  offset="0.9944" style="stop-color:#005B97"/>
	</linearGradient>
	<path fill="url(#SVGID_8_)" d="M538.1,206.7c0,9.9-4.5,12.5-15.7,12.5c-8.8,0-13.3-0.1-19.1-0.6v-47.9c5.1-0.5,9.3-0.6,16.9-0.6
		c12.1,0,16.4,2.6,16.4,12.5c0,6.9-2.4,10.4-8.2,11v0.3C535.7,194.6,538.1,199.1,538.1,206.7z M511.9,177.2v13.5h8.7
		c5.8,0,7.8-1.4,7.8-6.9c0-5.3-2.1-6.6-8.5-6.6H511.9z M529.5,205.1c0-6.4-2.2-8.1-8.8-8.1h-8.8v15.1c2.6,0.1,5.7,0.1,9.1,0.1
		C527.5,212.2,529.5,210.9,529.5,205.1z"/>
	<linearGradient id="SVGID_9_" gradientUnits="userSpaceOnUse" x1="248.2789" y1="485.4416" x2="536.3077" y2="224.4155">
		<stop  offset="0" style="stop-color:#CCE0F4"/>
		<stop  offset="6.405089e-002" style="stop-color:#C3DCF2"/>
		<stop  offset="0.1706" style="stop-color:#A9D2EE"/>
		<stop  offset="0.3066" style="stop-color:#80C2E7"/>
		<stop  offset="0.4649" style="stop-color:#47ACDE"/>
		<stop  offset="0.5674" style="stop-color:#1E9CD7"/>
		<stop  offset="0.8652" style="stop-color:#0075BE"/>
		<stop  offset="0.9944" style="stop-color:#005B97"/>
	</linearGradient>
	<path fill="url(#SVGID_9_)" d="M575.9,195.5v23.1h-6.7l-0.9-5.1c-2.4,2.6-6.9,5.9-13,5.9c-6.3,0-10.8-3.5-10.8-9.9v-3.5
		c0-5.4,3.7-8.5,10.1-8.5h12.8v-2.1c-0.1-3.9-1.4-4.9-6.3-4.9c-3.1,0-8.9,0.3-14.2,0.7l-0.8-6c4.9-0.9,12.5-1.7,17-1.7
		C571.6,183.7,575.9,186.4,575.9,195.5z M557.5,212.6c2.6,0,6.5-1.1,10-4v-5.3h-10.8c-2.8,0.1-3.6,1.5-3.6,3.8v1.3
		C553,211.4,554.4,212.6,557.5,212.6z"/>
	<linearGradient id="SVGID_10_" gradientUnits="userSpaceOnUse" x1="266.1237" y1="505.1324" x2="554.1526" y2="244.1063">
		<stop  offset="0" style="stop-color:#CCE0F4"/>
		<stop  offset="6.405089e-002" style="stop-color:#C3DCF2"/>
		<stop  offset="0.1706" style="stop-color:#A9D2EE"/>
		<stop  offset="0.3066" style="stop-color:#80C2E7"/>
		<stop  offset="0.4649" style="stop-color:#47ACDE"/>
		<stop  offset="0.5674" style="stop-color:#1E9CD7"/>
		<stop  offset="0.8652" style="stop-color:#0075BE"/>
		<stop  offset="0.9944" style="stop-color:#005B97"/>
	</linearGradient>
	<path fill="url(#SVGID_10_)" d="M612.1,185.6l-1,5.3c-3.4-0.1-6.9-0.1-9.4-0.1c-6.9,0-9.3,2.4-9.3,10.8c0,8.5,2.4,11,9.3,11
		c2.1,0,6.5-0.1,10.2-0.7l0.8,5.6c-3.5,1.5-8.2,2.1-12.5,2.1c-12.2,0-16.6-4.7-16.6-17.9c0-13.1,4.5-17.9,16.7-17.9
		C603.6,183.7,608.6,184.2,612.1,185.6z"/>
	<linearGradient id="SVGID_11_" gradientUnits="userSpaceOnUse" x1="278.0857" y1="518.3318" x2="566.1145" y2="257.3057">
		<stop  offset="0" style="stop-color:#CCE0F4"/>
		<stop  offset="6.405089e-002" style="stop-color:#C3DCF2"/>
		<stop  offset="0.1706" style="stop-color:#A9D2EE"/>
		<stop  offset="0.3066" style="stop-color:#80C2E7"/>
		<stop  offset="0.4649" style="stop-color:#47ACDE"/>
		<stop  offset="0.5674" style="stop-color:#1E9CD7"/>
		<stop  offset="0.8652" style="stop-color:#0075BE"/>
		<stop  offset="0.9944" style="stop-color:#005B97"/>
	</linearGradient>
	<path fill="url(#SVGID_11_)" d="M631.5,202.4h-3.8c0.3,1.8,0.4,3.6,0.4,5.2v11h-8.5v-48.6h8.5l0.1,20.7c0,2.1-0.1,4-0.5,6h3.7
		l9.3-12.1h9.6l-9.5,12.1c-0.8,1.2-2.1,2.4-2.8,2.8v0.1c0.8,0.5,2.1,2,2.8,3.3l10.6,15.7h-9.6L631.5,202.4z"/>
</g>
</svg>
