<?xml version="1.0" encoding="utf-8"?>
<!-- Generator: Adobe Illustrator 18.0.0, SVG Export Plug-In . SVG Version: 6.00 Build 0)  -->
<!DOCTYPE svg PUBLIC "-//W3C//DTD SVG 1.1//EN" "http://www.w3.org/Graphics/SVG/1.1/DTD/svg11.dtd">
<svg version="1.1" id="Camada_1" xmlns="http://www.w3.org/2000/svg" xmlns:xlink="http://www.w3.org/1999/xlink" x="0px" y="0px"
	 viewBox="0 0 960 560" enable-background="new 0 0 960 560" xml:space="preserve">
<g id="Loop">
	<linearGradient id="SVGID_1_" gradientUnits="userSpaceOnUse" x1="163.9197" y1="392.3556" x2="451.9485" y2="131.3295">		
		<stop  offset="0" style="stop-color:#1E9CD7"/>
		<stop  offset="6.405089e-002" style="stop-color:#0075BE"/>
		<stop  offset="0.8652" style="stop-color:#005B97"/>
	</linearGradient>
	<path fill="url(#SVGID_1_)" d="M282.2,334.6c-1.4,0-2.8-0.1-4.2-0.4l-0.8-0.2c-4.6-0.9-8.4-3.3-11.3-7.1c-3.2-3.9-4.7-8.2-4.7-13
		c0-1.3,0.1-2.5,0.4-3.6V199.7c0-5.5,2.3-10.6,6.1-14.4c3.7-3.7,9-5.8,14.6-5.8c5.6,0,11,2.1,14.7,5.8c3.7,3.7,6.1,8.9,6.1,14.4
		v93.5l41.1,0.2c5.6,0,10.8,2.2,14.6,6.1c3.7,3.7,6,9.1,6,14.7c0,6-2,10.8-6,14.6c-3.7,3.6-9,5.7-14.6,5.7H282.2z"/>
	<linearGradient id="SVGID_2_" gradientUnits="userSpaceOnUse" x1="248.1909" y1="485.3445" x2="536.2197" y2="224.3184">
		<stop  offset="0" style="stop-color:#CCE0F4"/>
		<stop  offset="6.405089e-002" style="stop-color:#C3DCF2"/>
		<stop  offset="0.1706" style="stop-color:#A9D2EE"/>
		<stop  offset="0.3066" style="stop-color:#80C2E7"/>
		<stop  offset="0.4649" style="stop-color:#47ACDE"/>
		<stop  offset="0.5674" style="stop-color:#1E9CD7"/>
		<stop  offset="0.8652" style="stop-color:#0075BE"/>
		<stop  offset="0.9944" style="stop-color:#005B97"/>
	</linearGradient>
	<path fill="url(#SVGID_2_)" d="M477.4,279.3c-2.8-10.7-7.9-19.2-15.9-26.4c10.4-8.5,22-12.5,34.9-11.4
		c18.9,1.6,32.7,11.4,40.8,28.4c8,16.8,6.5,33.4-4,48.8c-14.2,20.8-43.9,26.1-66.9,12.5c-7.2-4.3-12.2-9.9-13.9-18.2
		c-1.8-8.8-3.7-17.5-5.7-26.2c-1.9-8.3-8.4-13.7-16.5-14.2c-7.8-0.4-15.3,4.5-17.9,11.9c-2.6,7.2-0.3,15.2,5.7,20
		c5.8,4.7,13.5,5.2,20,1.3c2.3-1.4,4.6-2.8,7.3-4.5c2.8,9.4,3.7,19.5,11.5,26.5c-14.9,11.1-36.4,11.7-52.2,1.7
		c-16.2-10.2-24.2-29-20.6-48.2c3.5-18.1,18.4-32.9,36.5-36.2c26.3-4.8,48.5,11.2,53.7,38.6c0.7,3.8,1.3,7.7,2.2,11.5
		c2.4,9.9,9.1,15.2,17.9,14.5c9.3-0.8,17-8.4,17.9-17.7c0.8-9.1-4.9-17.3-13.8-19.6C490,270.2,483.3,272.6,477.4,279.3z"/>
	<linearGradient id="SVGID_3_" gradientUnits="userSpaceOnUse" x1="312.4305" y1="556.2295" x2="600.4593" y2="295.2034">
		<stop  offset="0" style="stop-color:#CCE0F4"/>
		<stop  offset="6.405089e-002" style="stop-color:#C3DCF2"/>
		<stop  offset="0.1706" style="stop-color:#A9D2EE"/>
		<stop  offset="0.3066" style="stop-color:#80C2E7"/>
		<stop  offset="0.4649" style="stop-color:#47ACDE"/>
		<stop  offset="0.5674" style="stop-color:#1E9CD7"/>
		<stop  offset="0.8652" style="stop-color:#0075BE"/>
		<stop  offset="0.9944" style="stop-color:#005B97"/>
	</linearGradient>
	<path fill="url(#SVGID_3_)" d="M640.4,255.5c-8.6-8.8-20.5-13.9-33.2-13.9c-12.4,0-23.7,4.9-32.3,13.4c-8.8,8.5-14,20-14,32.3V350
		c0,4.9,1.6,9.5,4.8,12.6c3.2,3.2,7.5,5.2,12.1,5.2c4.9,0,9.9-2,12.9-5.2c3-3.1,5.2-7.6,5.2-12.6v-16.2c4,1.2,7.6,1.7,12.1,1.7
		c12.6,0,24.2-5.2,32.7-13.8c8.6-8.6,13.6-20.4,13.6-33.1C654.4,276.1,649,264.3,640.4,255.5z M607.8,308.5
		c-10.2,0-18.5-8.3-18.5-18.5s8.3-18.5,18.5-18.5c10.2,0,18.5,8.3,18.5,18.5S618,308.5,607.8,308.5z"/>
</g>
</svg>
