<svg xmlns="http://www.w3.org/2000/svg" data-name="Layer 1" viewBox="0 0 100 125" x="0px" y="0px"><title>Relatorios</title><g data-name="Group"><path style="fill: #1524254d" data-name="Compound Path" d="M90.7,16H26.4V40.5H9.3v33A10.6,10.6,0,0,0,19.9,84H78A12.7,12.7,0,0,0,90.7,71.3ZM26.4,73.5A6.5,6.5,0,0,1,19.9,80a6.6,6.6,0,0,1-6.6-6.5v-29H26.4Zm60.3-2.2A8.7,8.7,0,0,1,78,80H28.1a10.1,10.1,0,0,0,2.3-6.5V20H86.7Z"/><rect style="fill: #1524254d" data-name="Path" x="40.5" y="32.7" width="19.5" height="4"/><rect style="fill: #1524254d" data-name="Path" x="40.5" y="46.6" width="34.4" height="4"/><rect style="fill: #1524254d" data-name="Path" x="40.5" y="60.4" width="34.4" height="4"/></g></svg>