<svg xmlns="http://www.w3.org/2000/svg" xmlns:xlink="http://www.w3.org/1999/xlink" xml:space="preserve" version="1.1" style="shape-rendering:geometricPrecision;text-rendering:geometricPrecision;image-rendering:optimizeQuality;" id="search_icon" viewBox="0 0 847 847" x="0px" y="0px" fill-rule="evenodd" clip-rule="evenodd"><g><path style="fill: #fff" d="M527 445l282 282c54,54 -28,136 -82,82l-282 -282c-108,70 -252,55 -345,-37 -107,-107 -107,-282 0,-390 108,-107 283,-107 390,0 92,93 107,237 37,345zm-366 -284c-74,74 -74,194 0,269 74,74 194,74 269,0 74,-75 74,-195 0,-269 -75,-74 -195,-74 -269,0z"/></g></svg>