<svg xmlns="http://www.w3.org/2000/svg" data-name="Layer 1" viewBox="0 0 100 125" x="0px" y="0px"><title>Settings</title><path style="fill: #b8bdbd" d="M7.24,56.71A7.08,7.08,0,0,0,5.32,66l8.56,14.73a7.19,7.19,0,0,0,3.85,3.17A6.62,6.62,0,0,0,23,83.41l7.14-3.28c1.08.7,2.18,1.34,3.32,1.93l.73,8.06a5.31,5.31,0,0,0,.08.53,7.12,7.12,0,0,0,6.89,5.8H58.23a7,7,0,0,0,7-6.47l.72-7.9a36.84,36.84,0,0,0,3.38-1.92l7.27,3.34.23.1a7,7,0,0,0,8.81-3L94,66.06a7.09,7.09,0,0,0-1.85-9.33l-6.05-4.61c.05-.67.09-1.37.09-2.12s0-1.37-.08-2l6.51-4.63.1-.08A7.1,7.1,0,0,0,94.65,34L85.92,19.27a6.76,6.76,0,0,0-9.14-2.68l-7.14,3.28c-1.08-.7-2.18-1.34-3.33-1.93l-.73-8.06a5.14,5.14,0,0,0-.08-.53,7.13,7.13,0,0,0-6.89-5.8H41.57a7,7,0,0,0-7,6.47l-.72,7.9a36.62,36.62,0,0,0-3.38,1.92L23.24,16.5,23,16.4a7,7,0,0,0-8.81,3L5.75,33.94a7.1,7.1,0,0,0,1.88,9.35l.1.08L14.24,48c0,.64-.08,1.3-.08,2s0,1.32.08,1.94L7.42,56.58ZM22.37,58.5a5,5,0,0,0,2.13-4.86A25,25,0,0,1,24.16,50a25.23,25.23,0,0,1,.35-3.66,5,5,0,0,0-2.05-4.78l-6.77-4.81,5.83-10L29,30.15a5,5,0,0,0,5.26-.67,26.34,26.34,0,0,1,6.34-3.64,5,5,0,0,0,3-4.14l.74-8.14H55.88l.74,8.14a5,5,0,0,0,3,4.14,30.77,30.77,0,0,1,6.51,3.77,5,5,0,0,0,5.09.54l7.48-3.44,6,10.06-6.75,4.8a5,5,0,0,0-2.05,4.78A25.12,25.12,0,0,1,76.23,50a25.24,25.24,0,0,1-.35,3.65h0a5,5,0,0,0,1.92,4.68l6.35,4.84-5.87,10.1-7.46-3.43a5,5,0,0,0-5.26.67,26.37,26.37,0,0,1-6.34,3.64,5,5,0,0,0-3,4.14l-.74,8.14H43.92l-.74-8.14a5,5,0,0,0-3-4.14,30.72,30.72,0,0,1-6.51-3.77,5,5,0,0,0-5.09-.54l-7.46,3.43-5.8-10Z"/><path style="fill: #b8bdbd" d="M50,68.18A18.18,18.18,0,1,0,31.82,50,18,18,0,0,0,50,68.18Zm0-26.36A8.18,8.18,0,1,1,41.82,50,8.1,8.1,0,0,1,50,41.82Z"/></svg>